MFile 1 2 96
MTrk
0 Tempo 500000
0 KeySig 0 major
0 TimeSig 4/4 24 8
0 Tempo 508608
0 Tempo 508608
0 Tempo 508608
0 Tempo 508608
0 Tempo 508608
0 Tempo 508608
0 Tempo 508608
0 Tempo 508608
0 Tempo 508608
0 Tempo 508608
0 Tempo 508608
0 Meta TrkEnd
TrkEnd
MTrk
0 Par ch=1 c=0 v=0
0 Par ch=1 c=32 v=0
0 PrCh ch=1 p=48
0 Meta TrkName "Untitled\0"
0 Par ch=1 c=7 v=127
0 Par ch=1 c=0 v=0
0 Par ch=1 c=7 v=127
0 Par ch=1 c=0 v=0
0 Par ch=1 c=10 v=44
0 Par ch=1 c=7 v=110
2550 On ch=1 n=39 v=98
2680 Off ch=1 n=39 v=0
2710 On ch=1 n=39 v=92
2760 Off ch=1 n=39 v=0
2790 On ch=1 n=39 v=83
2838 Off ch=1 n=39 v=0
2870 On ch=1 n=39 v=112
2996 Off ch=1 n=39 v=0
3030 On ch=1 n=40 v=65
3084 Off ch=1 n=40 v=0
3110 On ch=1 n=40 v=59
3156 Off ch=1 n=40 v=0
3190 On ch=1 n=39 v=95
3312 Off ch=1 n=39 v=0
3350 On ch=1 n=39 v=59
3392 Off ch=1 n=39 v=0
3430 On ch=1 n=39 v=68
3472 Off ch=1 n=39 v=0
3510 On ch=1 n=39 v=104
3630 Off ch=1 n=39 v=0
3670 On ch=1 n=40 v=59
3706 Off ch=1 n=40 v=0
3750 On ch=1 n=40 v=53
3792 Off ch=1 n=40 v=0
3830 On ch=1 n=39 v=98
3960 Off ch=1 n=39 v=0
3990 On ch=1 n=39 v=92
4040 Off ch=1 n=39 v=0
4070 On ch=1 n=39 v=83
4118 Off ch=1 n=39 v=0
4150 On ch=1 n=39 v=112
4276 Off ch=1 n=39 v=0
4310 On ch=1 n=40 v=65
4364 Off ch=1 n=40 v=0
4390 On ch=1 n=40 v=59
4436 Off ch=1 n=40 v=0
4470 On ch=1 n=39 v=95
4592 Off ch=1 n=39 v=0
4630 On ch=1 n=39 v=59
4672 Off ch=1 n=39 v=0
4710 On ch=1 n=39 v=68
4752 Off ch=1 n=39 v=0
4790 On ch=1 n=39 v=104
4910 Off ch=1 n=39 v=0
4950 On ch=1 n=40 v=59
4986 Off ch=1 n=40 v=0
5030 On ch=1 n=40 v=53
5072 Off ch=1 n=40 v=0
5110 On ch=1 n=39 v=104
5230 Off ch=1 n=39 v=0
5270 On ch=1 n=39 v=59
5310 Off ch=1 n=39 v=0
5350 On ch=1 n=39 v=65
5388 Off ch=1 n=39 v=0
5430 On ch=1 n=39 v=95
5550 Off ch=1 n=39 v=0
5590 On ch=1 n=40 v=77
5632 Off ch=1 n=40 v=0
5670 On ch=1 n=40 v=71
5706 Off ch=1 n=40 v=0
5750 On ch=1 n=39 v=112
5872 Off ch=1 n=39 v=0
5910 On ch=1 n=39 v=65
5946 Off ch=1 n=39 v=0
5990 On ch=1 n=39 v=77
6028 Off ch=1 n=39 v=0
6070 On ch=1 n=39 v=110
6188 Off ch=1 n=39 v=0
6230 On ch=1 n=40 v=59
6270 Off ch=1 n=40 v=0
6310 On ch=1 n=40 v=68
6346 Off ch=1 n=40 v=0
6390 On ch=1 n=39 v=95
6510 Off ch=1 n=39 v=0
6550 On ch=1 n=39 v=74
6592 Off ch=1 n=39 v=0
6630 On ch=1 n=39 v=59
6664 Off ch=1 n=39 v=0
6710 On ch=1 n=39 v=77
6828 Off ch=1 n=39 v=0
6870 On ch=1 n=40 v=59
6906 Off ch=1 n=40 v=0
6950 On ch=1 n=40 v=59
6990 Off ch=1 n=40 v=0
7030 On ch=1 n=39 v=74
7150 Off ch=1 n=39 v=0
7190 On ch=1 n=39 v=59
7232 Off ch=1 n=39 v=0
7270 On ch=1 n=39 v=74
7306 Off ch=1 n=39 v=0
7350 On ch=1 n=39 v=83
7472 Off ch=1 n=39 v=0
7510 On ch=1 n=40 v=65
7548 Off ch=1 n=40 v=0
7590 On ch=1 n=40 v=65
7628 Off ch=1 n=40 v=0
7670 On ch=1 n=39 v=77
7786 Off ch=1 n=39 v=0
7830 On ch=1 n=39 v=74
7870 Off ch=1 n=39 v=0
7910 On ch=1 n=39 v=53
7944 Off ch=1 n=39 v=0
7990 On ch=1 n=39 v=95
8106 Off ch=1 n=39 v=0
8150 On ch=1 n=40 v=59
8192 Off ch=1 n=40 v=0
8230 On ch=1 n=40 v=59
8272 Off ch=1 n=40 v=0
8310 On ch=1 n=39 v=104
8428 Off ch=1 n=39 v=0
8470 On ch=1 n=39 v=65
8506 Off ch=1 n=39 v=0
8550 On ch=1 n=39 v=59
8584 Off ch=1 n=39 v=0
8630 On ch=1 n=39 v=89
8754 Off ch=1 n=39 v=0
8790 On ch=1 n=40 v=74
8818 Off ch=1 n=40 v=0
8870 On ch=1 n=40 v=59
8906 Off ch=1 n=40 v=0
8950 On ch=1 n=39 v=83
9056 Off ch=1 n=39 v=0
9110 On ch=1 n=39 v=83
9140 Off ch=1 n=39 v=0
9190 On ch=1 n=39 v=80
9224 Off ch=1 n=39 v=0
9270 On ch=1 n=39 v=110
9384 Off ch=1 n=39 v=0
9430 On ch=1 n=40 v=80
9464 Off ch=1 n=40 v=0
9510 On ch=1 n=40 v=59
9544 Off ch=1 n=40 v=0
9590 On ch=1 n=39 v=104
9706 Off ch=1 n=39 v=0
9750 On ch=1 n=39 v=68
9788 Off ch=1 n=39 v=0
9830 On ch=1 n=39 v=74
9876 Off ch=1 n=39 v=0
9910 On ch=1 n=39 v=101
10032 Off ch=1 n=39 v=0
10070 On ch=1 n=40 v=65
10110 Off ch=1 n=40 v=0
10150 On ch=1 n=39 v=83
10196 Off ch=1 n=39 v=0
10230 On ch=1 n=44 v=116
10352 Off ch=1 n=44 v=0
10390 On ch=1 n=44 v=104
10424 Off ch=1 n=44 v=0
10470 On ch=1 n=44 v=104
10506 Off ch=1 n=44 v=0
10550 On ch=1 n=44 v=127
10680 Off ch=1 n=44 v=0
10710 On ch=1 n=45 v=104
10748 Off ch=1 n=45 v=0
10790 On ch=1 n=45 v=104
10824 Off ch=1 n=45 v=0
10870 On ch=1 n=44 v=112
10998 Off ch=1 n=44 v=0
11030 On ch=1 n=44 v=92
11066 Off ch=1 n=44 v=0
11110 On ch=1 n=44 v=104
11146 Off ch=1 n=44 v=0
11190 On ch=1 n=44 v=116
11320 Off ch=1 n=44 v=0
11350 On ch=1 n=45 v=104
11388 Off ch=1 n=45 v=0
11430 On ch=1 n=45 v=98
11466 Off ch=1 n=45 v=0
11510 On ch=1 n=44 v=110
11632 Off ch=1 n=44 v=0
11670 On ch=1 n=44 v=92
11706 Off ch=1 n=44 v=0
11750 On ch=1 n=44 v=104
11784 Off ch=1 n=44 v=0
11830 On ch=1 n=44 v=101
11946 Off ch=1 n=44 v=0
11990 On ch=1 n=45 v=101
12020 Off ch=1 n=45 v=0
12070 On ch=1 n=45 v=104
12100 Off ch=1 n=45 v=0
12150 On ch=1 n=44 v=114
12268 Off ch=1 n=44 v=0
12310 On ch=1 n=44 v=112
12340 Off ch=1 n=44 v=0
12390 On ch=1 n=44 v=92
12420 Off ch=1 n=44 v=0
12470 On ch=1 n=44 v=101
12592 Off ch=1 n=44 v=0
12630 On ch=1 n=45 v=80
12672 Off ch=1 n=45 v=0
12710 On ch=1 n=44 v=110
12740 Off ch=1 n=44 v=0
12790 On ch=1 n=39 v=89
12906 Off ch=1 n=39 v=0
12950 On ch=1 n=39 v=101
12980 Off ch=1 n=39 v=0
13030 On ch=1 n=39 v=74
13074 Off ch=1 n=39 v=0
13110 On ch=1 n=39 v=98
13218 Off ch=1 n=39 v=0
13270 On ch=1 n=40 v=89
13308 Off ch=1 n=40 v=0
13350 On ch=1 n=40 v=89
13384 Off ch=1 n=40 v=0
13430 On ch=1 n=39 v=118
13556 Off ch=1 n=39 v=0
13590 On ch=1 n=39 v=80
13632 Off ch=1 n=39 v=0
13670 On ch=1 n=39 v=98
13712 Off ch=1 n=39 v=0
13750 On ch=1 n=39 v=101
13872 Off ch=1 n=39 v=0
13910 On ch=1 n=40 v=71
13948 Off ch=1 n=40 v=0
13990 On ch=1 n=40 v=80
14028 Off ch=1 n=40 v=0
14070 On ch=1 n=39 v=104
14184 Off ch=1 n=39 v=0
14230 On ch=1 n=39 v=83
14264 Off ch=1 n=39 v=0
14310 On ch=1 n=39 v=83
14346 Off ch=1 n=39 v=0
14390 On ch=1 n=39 v=95
14500 Off ch=1 n=39 v=0
14550 On ch=1 n=40 v=68
14584 Off ch=1 n=40 v=0
14630 On ch=1 n=40 v=89
14660 Off ch=1 n=40 v=0
14710 On ch=1 n=39 v=104
14822 Off ch=1 n=39 v=0
14870 On ch=1 n=39 v=68
14902 Off ch=1 n=39 v=0
14950 On ch=1 n=39 v=92
14984 Off ch=1 n=39 v=0
15030 On ch=1 n=39 v=112
15140 Off ch=1 n=39 v=0
15190 On ch=1 n=40 v=80
15224 Off ch=1 n=40 v=0
15270 On ch=1 n=40 v=59
15304 Off ch=1 n=40 v=0
17279 Par ch=1 c=127 v=0
17279 Meta TrkEnd
TrkEnd
