MFile 1 2 96
MTrk
0 Tempo 500000
0 KeySig 0 major
0 TimeSig 4/4 24 8
0 Tempo 508608
0 Tempo 508608
0 Tempo 508608
0 Tempo 508608
0 Tempo 508608
0 Tempo 508608
0 Tempo 508608
0 Tempo 508608
0 Meta TrkEnd
TrkEnd
MTrk
0 Par ch=1 c=0 v=0
0 Par ch=1 c=32 v=0
0 PrCh ch=1 p=52
0 Meta TrkName "Untitled\0"
0 Par ch=1 c=7 v=127
0 Par ch=1 c=0 v=0
0 Par ch=1 c=10 v=94
0 Par ch=1 c=7 v=0
0 Par ch=1 c=7 v=0
0 Par ch=1 c=10 v=94
1118 Par ch=1 c=7 v=0
1492 On ch=1 n=62 v=74
1496 Par ch=1 c=7 v=19
1498 Par ch=1 c=7 v=21
1502 Par ch=1 c=7 v=23
1504 Par ch=1 c=7 v=25
1508 Par ch=1 c=7 v=27
1512 Par ch=1 c=7 v=29
1516 Par ch=1 c=7 v=31
1518 Par ch=1 c=7 v=33
1522 Par ch=1 c=7 v=35
1524 Par ch=1 c=7 v=37
1528 Par ch=1 c=7 v=39
1532 Par ch=1 c=7 v=40
1536 Par ch=1 c=7 v=42
1538 Par ch=1 c=7 v=44
1542 Par ch=1 c=7 v=45
1546 Par ch=1 c=7 v=46
1548 Par ch=1 c=7 v=47
1556 Par ch=1 c=7 v=50
1560 Par ch=1 c=7 v=51
1566 Par ch=1 c=7 v=53
1568 Par ch=1 c=7 v=55
1576 Par ch=1 c=7 v=57
1580 Par ch=1 c=7 v=58
1586 Par ch=1 c=7 v=61
1588 Par ch=1 c=7 v=62
1596 Par ch=1 c=7 v=64
1600 Par ch=1 c=7 v=66
1604 Par ch=1 c=7 v=67
1606 Par ch=1 c=7 v=68
1608 Par ch=1 c=7 v=70
1612 Par ch=1 c=7 v=71
1616 Par ch=1 c=7 v=73
1620 Par ch=1 c=7 v=74
1624 Par ch=1 c=7 v=76
1626 Par ch=1 c=7 v=78
1630 Par ch=1 c=7 v=79
1632 Par ch=1 c=7 v=81
1636 Par ch=1 c=7 v=82
1640 Par ch=1 c=7 v=83
1644 Par ch=1 c=7 v=85
1646 Par ch=1 c=7 v=86
1652 Par ch=1 c=7 v=88
1656 Par ch=1 c=7 v=89
1664 Par ch=1 c=7 v=92
1672 Par ch=1 c=7 v=94
1676 Par ch=1 c=7 v=95
1684 Par ch=1 c=7 v=97
1686 Par ch=1 c=7 v=98
1694 Par ch=1 c=7 v=100
1696 Par ch=1 c=7 v=101
1704 Par ch=1 c=7 v=104
1708 Par ch=1 c=7 v=105
1714 Par ch=1 c=7 v=107
1716 Par ch=1 c=7 v=108
1724 Par ch=1 c=7 v=110
1728 Par ch=1 c=7 v=111
1734 Par ch=1 c=7 v=113
1736 Par ch=1 c=7 v=114
1744 Par ch=1 c=7 v=116
1748 Par ch=1 c=7 v=117
1754 Par ch=1 c=7 v=119
1758 Par ch=1 c=7 v=120
1764 Par ch=1 c=7 v=122
1768 Par ch=1 c=7 v=123
1774 Par ch=1 c=7 v=126
1920 Par ch=1 c=7 v=125
1922 Par ch=1 c=7 v=123
1926 Par ch=1 c=7 v=122
1928 Par ch=1 c=7 v=120
1932 Par ch=1 c=7 v=119
1936 Par ch=1 c=7 v=117
1940 Par ch=1 c=7 v=116
1942 Par ch=1 c=7 v=114
1946 Par ch=1 c=7 v=113
1952 Par ch=1 c=7 v=111
1956 Par ch=1 c=7 v=110
1962 Par ch=1 c=7 v=108
1966 Par ch=1 c=7 v=107
1972 Par ch=1 c=7 v=105
1976 Par ch=1 c=7 v=104
1984 Par ch=1 c=7 v=102
1986 Par ch=1 c=7 v=101
1992 Par ch=1 c=7 v=98
1996 Par ch=1 c=7 v=97
2004 Par ch=1 c=7 v=95
2006 Par ch=1 c=7 v=94
2012 Par ch=1 c=7 v=92
2016 Par ch=1 c=7 v=91
2024 Par ch=1 c=7 v=89
2028 Par ch=1 c=7 v=88
2034 Par ch=1 c=7 v=86
2036 Par ch=1 c=7 v=85
2044 Par ch=1 c=7 v=84
2046 Par ch=1 c=7 v=83
2054 Par ch=1 c=7 v=81
2056 Par ch=1 c=7 v=80
2064 Par ch=1 c=7 v=78
2068 Par ch=1 c=7 v=77
2074 Par ch=1 c=7 v=76
2076 Par ch=1 c=7 v=75
2084 Par ch=1 c=7 v=73
2094 Par ch=1 c=7 v=71
2096 Par ch=1 c=7 v=70
2104 Par ch=1 c=7 v=69
2108 Par ch=1 c=7 v=68
2114 Par ch=1 c=7 v=66
2124 Par ch=1 c=7 v=64
2128 Par ch=1 c=7 v=63
2134 Par ch=1 c=7 v=62
2138 Par ch=1 c=7 v=61
2144 Par ch=1 c=7 v=60
2148 Par ch=1 c=7 v=59
2154 Par ch=1 c=7 v=58
2158 Par ch=1 c=7 v=57
2164 Par ch=1 c=7 v=56
2168 Par ch=1 c=7 v=55
2174 Par ch=1 c=7 v=52
2178 Par ch=1 c=7 v=51
2180 Par ch=1 c=7 v=50
2188 Par ch=1 c=7 v=47
2192 Par ch=1 c=7 v=46
2196 Par ch=1 c=7 v=45
2202 Par ch=1 c=7 v=42
2204 Par ch=1 c=7 v=41
2208 Par ch=1 c=7 v=39
2212 Par ch=1 c=7 v=38
2216 Par ch=1 c=7 v=36
2218 Par ch=1 c=7 v=35
2222 Par ch=1 c=7 v=33
2224 Par ch=1 c=7 v=31
2228 Par ch=1 c=7 v=29
2232 Par ch=1 c=7 v=27
2236 Par ch=1 c=7 v=25
2238 Off ch=1 n=62 v=0
2238 On ch=1 n=63 v=74
2242 Par ch=1 c=7 v=19
2244 Par ch=1 c=7 v=21
2248 Par ch=1 c=7 v=23
2252 Par ch=1 c=7 v=25
2256 Par ch=1 c=7 v=27
2258 Par ch=1 c=7 v=29
2262 Par ch=1 c=7 v=31
2264 Par ch=1 c=7 v=33
2268 Par ch=1 c=7 v=35
2272 Par ch=1 c=7 v=37
2276 Par ch=1 c=7 v=39
2278 Par ch=1 c=7 v=40
2282 Par ch=1 c=7 v=42
2284 Par ch=1 c=7 v=44
2288 Par ch=1 c=7 v=45
2292 Par ch=1 c=7 v=46
2296 Par ch=1 c=7 v=47
2302 Par ch=1 c=7 v=50
2306 Par ch=1 c=7 v=51
2312 Par ch=1 c=7 v=53
2316 Par ch=1 c=7 v=55
2322 Par ch=1 c=7 v=57
2326 Par ch=1 c=7 v=58
2332 Par ch=1 c=7 v=61
2336 Par ch=1 c=7 v=62
2344 Par ch=1 c=7 v=64
2346 Par ch=1 c=7 v=66
2350 Par ch=1 c=7 v=67
2352 Par ch=1 c=7 v=68
2356 Par ch=1 c=7 v=70
2360 Par ch=1 c=7 v=71
2362 Par ch=1 c=7 v=73
2366 Par ch=1 c=7 v=74
2370 Par ch=1 c=7 v=76
2372 Par ch=1 c=7 v=78
2376 Par ch=1 c=7 v=79
2380 Par ch=1 c=7 v=81
2384 Par ch=1 c=7 v=82
2386 Par ch=1 c=7 v=83
2390 Par ch=1 c=7 v=85
2392 Par ch=1 c=7 v=86
2400 Par ch=1 c=7 v=88
2404 Par ch=1 c=7 v=89
2410 Par ch=1 c=7 v=92
2420 Par ch=1 c=7 v=94
2424 Par ch=1 c=7 v=95
2430 Par ch=1 c=7 v=97
2432 Par ch=1 c=7 v=98
2440 Par ch=1 c=7 v=100
2444 Par ch=1 c=7 v=101
2450 Par ch=1 c=7 v=104
2454 Par ch=1 c=7 v=105
2460 Par ch=1 c=7 v=107
2464 Par ch=1 c=7 v=108
2470 Par ch=1 c=7 v=110
2474 Par ch=1 c=7 v=111
2480 Par ch=1 c=7 v=113
2484 Par ch=1 c=7 v=114
2490 Par ch=1 c=7 v=116
2494 Par ch=1 c=7 v=117
2500 Par ch=1 c=7 v=119
2504 Par ch=1 c=7 v=120
2512 Par ch=1 c=7 v=122
2514 Par ch=1 c=7 v=123
2666 Par ch=1 c=7 v=125
2668 Par ch=1 c=7 v=123
2672 Par ch=1 c=7 v=122
2676 Par ch=1 c=7 v=120
2680 Par ch=1 c=7 v=119
2682 Par ch=1 c=7 v=117
2686 Par ch=1 c=7 v=116
2688 Par ch=1 c=7 v=114
2692 Par ch=1 c=7 v=113
2700 Par ch=1 c=7 v=111
2702 Par ch=1 c=7 v=110
2708 Par ch=1 c=7 v=108
2712 Par ch=1 c=7 v=107
2720 Par ch=1 c=7 v=105
2724 Par ch=1 c=7 v=104
2730 Par ch=1 c=7 v=102
2732 Par ch=1 c=7 v=101
2740 Par ch=1 c=7 v=98
2744 Par ch=1 c=7 v=97
2750 Par ch=1 c=7 v=95
2752 Par ch=1 c=7 v=94
2760 Par ch=1 c=7 v=92
2764 Par ch=1 c=7 v=91
2770 Par ch=1 c=7 v=89
2774 Par ch=1 c=7 v=88
2780 Par ch=1 c=7 v=86
2784 Par ch=1 c=7 v=85
2790 Par ch=1 c=7 v=84
2792 Par ch=1 c=7 v=83
2800 Par ch=1 c=7 v=81
2804 Par ch=1 c=7 v=80
2810 Par ch=1 c=7 v=78
2814 Par ch=1 c=7 v=77
2820 Par ch=1 c=7 v=76
2824 Par ch=1 c=7 v=75
2830 Par ch=1 c=7 v=73
2840 Par ch=1 c=7 v=71
2844 Par ch=1 c=7 v=70
2852 Par ch=1 c=7 v=69
2854 Par ch=1 c=7 v=68
2860 Par ch=1 c=7 v=66
2872 Par ch=1 c=7 v=64
2874 Par ch=1 c=7 v=63
2880 Par ch=1 c=7 v=62
2884 Par ch=1 c=7 v=61
2892 Par ch=1 c=7 v=60
2894 Par ch=1 c=7 v=59
2900 Par ch=1 c=7 v=58
2904 Par ch=1 c=7 v=57
2912 Par ch=1 c=7 v=56
2914 Par ch=1 c=7 v=55
2920 Par ch=1 c=7 v=52
2924 Par ch=1 c=7 v=51
2928 Par ch=1 c=7 v=50
2936 Par ch=1 c=7 v=47
2938 Par ch=1 c=7 v=46
2942 Par ch=1 c=7 v=45
2948 Par ch=1 c=7 v=42
2952 Par ch=1 c=7 v=41
2956 Par ch=1 c=7 v=39
2958 Par ch=1 c=7 v=38
2962 Par ch=1 c=7 v=36
2964 Par ch=1 c=7 v=35
2968 Par ch=1 c=7 v=33
2972 Par ch=1 c=7 v=31
2976 Par ch=1 c=7 v=29
2978 Par ch=1 c=7 v=27
2982 Par ch=1 c=7 v=25
2984 Off ch=1 n=63 v=0
2984 On ch=1 n=62 v=74
2988 Par ch=1 c=7 v=19
2992 Par ch=1 c=7 v=21
2996 Par ch=1 c=7 v=23
2998 Par ch=1 c=7 v=25
3002 Par ch=1 c=7 v=27
3004 Par ch=1 c=7 v=29
3008 Par ch=1 c=7 v=31
3012 Par ch=1 c=7 v=33
3016 Par ch=1 c=7 v=35
3018 Par ch=1 c=7 v=37
3022 Par ch=1 c=7 v=39
3024 Par ch=1 c=7 v=40
3028 Par ch=1 c=7 v=42
3032 Par ch=1 c=7 v=44
3036 Par ch=1 c=7 v=45
3040 Par ch=1 c=7 v=46
3042 Par ch=1 c=7 v=47
3048 Par ch=1 c=7 v=50
3052 Par ch=1 c=7 v=51
3060 Par ch=1 c=7 v=53
3062 Par ch=1 c=7 v=55
3068 Par ch=1 c=7 v=57
3072 Par ch=1 c=7 v=58
3080 Par ch=1 c=7 v=61
3082 Par ch=1 c=7 v=62
3090 Par ch=1 c=7 v=64
3092 Par ch=1 c=7 v=66
3096 Par ch=1 c=7 v=67
3100 Par ch=1 c=7 v=68
3102 Par ch=1 c=7 v=70
3106 Par ch=1 c=7 v=71
3108 Par ch=1 c=7 v=73
3112 Par ch=1 c=7 v=74
3116 Par ch=1 c=7 v=76
3120 Par ch=1 c=7 v=78
3124 Par ch=1 c=7 v=79
3126 Par ch=1 c=7 v=81
3130 Par ch=1 c=7 v=82
3132 Par ch=1 c=7 v=83
3136 Par ch=1 c=7 v=85
3140 Par ch=1 c=7 v=86
3146 Par ch=1 c=7 v=88
3150 Par ch=1 c=7 v=89
3156 Par ch=1 c=7 v=92
3166 Par ch=1 c=7 v=94
3170 Par ch=1 c=7 v=95
3176 Par ch=1 c=7 v=97
3180 Par ch=1 c=7 v=98
3188 Par ch=1 c=7 v=100
3190 Par ch=1 c=7 v=101
3196 Par ch=1 c=7 v=104
3200 Par ch=1 c=7 v=105
3208 Par ch=1 c=7 v=107
3210 Par ch=1 c=7 v=108
3216 Par ch=1 c=7 v=110
3220 Par ch=1 c=7 v=111
3228 Par ch=1 c=7 v=113
3230 Par ch=1 c=7 v=114
3236 Par ch=1 c=7 v=116
3240 Par ch=1 c=7 v=117
3248 Par ch=1 c=7 v=119
3252 Par ch=1 c=7 v=120
3258 Par ch=1 c=7 v=122
3260 Par ch=1 c=7 v=123
3412 Par ch=1 c=7 v=125
3416 Par ch=1 c=7 v=123
3420 Par ch=1 c=7 v=122
3422 Par ch=1 c=7 v=120
3426 Par ch=1 c=7 v=119
3428 Par ch=1 c=7 v=117
3432 Par ch=1 c=7 v=116
3436 Par ch=1 c=7 v=114
3440 Par ch=1 c=7 v=113
3446 Par ch=1 c=7 v=111
3448 Par ch=1 c=7 v=110
3456 Par ch=1 c=7 v=108
3460 Par ch=1 c=7 v=107
3466 Par ch=1 c=7 v=105
3470 Par ch=1 c=7 v=104
3476 Par ch=1 c=7 v=102
3480 Par ch=1 c=7 v=101
3486 Par ch=1 c=7 v=98
3490 Par ch=1 c=7 v=97
3496 Par ch=1 c=7 v=95
3500 Par ch=1 c=7 v=94
3506 Par ch=1 c=7 v=92
3510 Par ch=1 c=7 v=91
3516 Par ch=1 c=7 v=89
3520 Par ch=1 c=7 v=88
3528 Par ch=1 c=7 v=86
3530 Par ch=1 c=7 v=85
3536 Par ch=1 c=7 v=84
3540 Par ch=1 c=7 v=83
3548 Par ch=1 c=7 v=81
3550 Par ch=1 c=7 v=80
3556 Par ch=1 c=7 v=78
3560 Par ch=1 c=7 v=77
3568 Par ch=1 c=7 v=76
3570 Par ch=1 c=7 v=75
3576 Par ch=1 c=7 v=73
3588 Par ch=1 c=7 v=71
3590 Par ch=1 c=7 v=70
3598 Par ch=1 c=7 v=69
3600 Par ch=1 c=7 v=68
3608 Par ch=1 c=7 v=66
3618 Par ch=1 c=7 v=64
3620 Par ch=1 c=7 v=63
3628 Par ch=1 c=7 v=62
3632 Par ch=1 c=7 v=61
3638 Par ch=1 c=7 v=60
3640 Par ch=1 c=7 v=59
3648 Par ch=1 c=7 v=58
3652 Par ch=1 c=7 v=57
3658 Par ch=1 c=7 v=56
3660 Par ch=1 c=7 v=55
3668 Par ch=1 c=7 v=52
3672 Par ch=1 c=7 v=51
3674 Par ch=1 c=7 v=50
3682 Par ch=1 c=7 v=47
3684 Par ch=1 c=7 v=46
3688 Par ch=1 c=7 v=45
3696 Par ch=1 c=7 v=42
3698 Par ch=1 c=7 v=41
3702 Par ch=1 c=7 v=39
3704 Par ch=1 c=7 v=38
3708 Par ch=1 c=7 v=36
3712 Par ch=1 c=7 v=35
3716 Par ch=1 c=7 v=33
3718 Par ch=1 c=7 v=31
3722 Par ch=1 c=7 v=29
3724 Par ch=1 c=7 v=27
3728 Par ch=1 c=7 v=25
3732 Off ch=1 n=62 v=0
3732 On ch=1 n=63 v=74
3736 Par ch=1 c=7 v=19
3738 Par ch=1 c=7 v=21
3742 Par ch=1 c=7 v=23
3744 Par ch=1 c=7 v=25
3748 Par ch=1 c=7 v=27
3752 Par ch=1 c=7 v=29
3756 Par ch=1 c=7 v=31
3758 Par ch=1 c=7 v=33
3762 Par ch=1 c=7 v=35
3764 Par ch=1 c=7 v=37
3768 Par ch=1 c=7 v=39
3772 Par ch=1 c=7 v=40
3776 Par ch=1 c=7 v=42
3778 Par ch=1 c=7 v=44
3782 Par ch=1 c=7 v=45
3786 Par ch=1 c=7 v=46
3788 Par ch=1 c=7 v=47
3796 Par ch=1 c=7 v=50
3800 Par ch=1 c=7 v=51
3806 Par ch=1 c=7 v=53
3808 Par ch=1 c=7 v=55
3816 Par ch=1 c=7 v=57
3820 Par ch=1 c=7 v=58
3826 Par ch=1 c=7 v=61
3828 Par ch=1 c=7 v=62
3836 Par ch=1 c=7 v=64
3840 Par ch=1 c=7 v=66
3844 Par ch=1 c=7 v=67
3846 Par ch=1 c=7 v=68
3848 Par ch=1 c=7 v=70
3852 Par ch=1 c=7 v=71
3856 Par ch=1 c=7 v=73
3860 Par ch=1 c=7 v=74
3864 Par ch=1 c=7 v=76
3866 Par ch=1 c=7 v=78
3870 Par ch=1 c=7 v=79
3872 Par ch=1 c=7 v=81
3876 Par ch=1 c=7 v=82
3880 Par ch=1 c=7 v=83
3884 Par ch=1 c=7 v=85
3886 Par ch=1 c=7 v=86
3892 Par ch=1 c=7 v=88
3896 Par ch=1 c=7 v=89
3904 Par ch=1 c=7 v=92
3912 Par ch=1 c=7 v=94
3916 Par ch=1 c=7 v=95
3924 Par ch=1 c=7 v=97
3926 Par ch=1 c=7 v=98
3934 Par ch=1 c=7 v=100
3936 Par ch=1 c=7 v=101
3944 Par ch=1 c=7 v=104
3948 Par ch=1 c=7 v=105
3954 Par ch=1 c=7 v=107
3956 Par ch=1 c=7 v=108
3964 Par ch=1 c=7 v=110
3968 Par ch=1 c=7 v=111
3974 Par ch=1 c=7 v=113
3976 Par ch=1 c=7 v=114
3984 Par ch=1 c=7 v=116
3988 Par ch=1 c=7 v=117
3994 Par ch=1 c=7 v=119
3998 Par ch=1 c=7 v=120
4004 Par ch=1 c=7 v=122
4008 Par ch=1 c=7 v=123
4160 Par ch=1 c=7 v=125
4162 Par ch=1 c=7 v=123
4166 Par ch=1 c=7 v=122
4168 Par ch=1 c=7 v=120
4172 Par ch=1 c=7 v=119
4176 Par ch=1 c=7 v=117
4180 Par ch=1 c=7 v=116
4182 Par ch=1 c=7 v=114
4186 Par ch=1 c=7 v=113
4192 Par ch=1 c=7 v=111
4196 Par ch=1 c=7 v=110
4202 Par ch=1 c=7 v=108
4206 Par ch=1 c=7 v=107
4212 Par ch=1 c=7 v=105
4216 Par ch=1 c=7 v=104
4224 Par ch=1 c=7 v=102
4226 Par ch=1 c=7 v=101
4232 Par ch=1 c=7 v=98
4236 Par ch=1 c=7 v=97
4244 Par ch=1 c=7 v=95
4246 Par ch=1 c=7 v=94
4252 Par ch=1 c=7 v=92
4256 Par ch=1 c=7 v=91
4264 Par ch=1 c=7 v=89
4268 Par ch=1 c=7 v=88
4274 Par ch=1 c=7 v=86
4276 Par ch=1 c=7 v=85
4284 Par ch=1 c=7 v=84
4286 Par ch=1 c=7 v=83
4294 Par ch=1 c=7 v=81
4296 Par ch=1 c=7 v=80
4304 Par ch=1 c=7 v=78
4308 Par ch=1 c=7 v=77
4314 Par ch=1 c=7 v=76
4316 Par ch=1 c=7 v=75
4324 Par ch=1 c=7 v=73
4334 Par ch=1 c=7 v=71
4336 Par ch=1 c=7 v=70
4344 Par ch=1 c=7 v=69
4348 Par ch=1 c=7 v=68
4354 Par ch=1 c=7 v=66
4364 Par ch=1 c=7 v=64
4368 Par ch=1 c=7 v=63
4374 Par ch=1 c=7 v=62
4378 Par ch=1 c=7 v=61
4384 Par ch=1 c=7 v=60
4388 Par ch=1 c=7 v=59
4394 Par ch=1 c=7 v=58
4398 Par ch=1 c=7 v=57
4404 Par ch=1 c=7 v=56
4408 Par ch=1 c=7 v=55
4414 Par ch=1 c=7 v=52
4418 Par ch=1 c=7 v=51
4420 Par ch=1 c=7 v=50
4428 Par ch=1 c=7 v=47
4432 Par ch=1 c=7 v=46
4436 Par ch=1 c=7 v=45
4442 Par ch=1 c=7 v=42
4444 Par ch=1 c=7 v=41
4448 Par ch=1 c=7 v=39
4452 Par ch=1 c=7 v=38
4456 Par ch=1 c=7 v=36
4458 Par ch=1 c=7 v=35
4462 Par ch=1 c=7 v=33
4464 Par ch=1 c=7 v=31
4468 Par ch=1 c=7 v=29
4472 Par ch=1 c=7 v=27
4476 Par ch=1 c=7 v=25
4478 Off ch=1 n=63 v=0
4478 On ch=1 n=62 v=74
4480 Par ch=1 c=7 v=15
4484 Par ch=1 c=7 v=18
4486 Par ch=1 c=7 v=21
4490 Par ch=1 c=7 v=24
4492 Par ch=1 c=7 v=27
4496 Par ch=1 c=7 v=30
4500 Par ch=1 c=7 v=33
4504 Par ch=1 c=7 v=35
4508 Par ch=1 c=7 v=38
4510 Par ch=1 c=7 v=41
4514 Par ch=1 c=7 v=44
4516 Par ch=1 c=7 v=46
4520 Par ch=1 c=7 v=49
4524 Par ch=1 c=7 v=51
4528 Par ch=1 c=7 v=53
4530 Par ch=1 c=7 v=55
4534 Par ch=1 c=7 v=57
4536 Par ch=1 c=7 v=59
4540 Par ch=1 c=7 v=61
4544 Par ch=1 c=7 v=63
4548 Par ch=1 c=7 v=64
4550 Par ch=1 c=7 v=66
4554 Par ch=1 c=7 v=68
4556 Par ch=1 c=7 v=69
4560 Par ch=1 c=7 v=71
4564 Par ch=1 c=7 v=72
4568 Par ch=1 c=7 v=74
4570 Par ch=1 c=7 v=76
4574 Par ch=1 c=7 v=77
4578 Par ch=1 c=7 v=78
4580 Par ch=1 c=7 v=80
4584 Par ch=1 c=7 v=81
4592 Par ch=1 c=7 v=84
4594 Par ch=1 c=7 v=85
4600 Par ch=1 c=7 v=87
4604 Par ch=1 c=7 v=89
4608 Par ch=1 c=7 v=90
4612 Par ch=1 c=7 v=91
4614 Par ch=1 c=7 v=93
4618 Par ch=1 c=7 v=94
4620 Par ch=1 c=7 v=96
4624 Par ch=1 c=7 v=97
4628 Par ch=1 c=7 v=99
4632 Par ch=1 c=7 v=100
4636 Par ch=1 c=7 v=101
4642 Par ch=1 c=7 v=103
4644 Par ch=1 c=7 v=105
4652 Par ch=1 c=7 v=107
4654 Par ch=1 c=7 v=108
4662 Par ch=1 c=7 v=109
4664 Par ch=1 c=7 v=110
4672 Par ch=1 c=7 v=112
4676 Par ch=1 c=7 v=113
4682 Par ch=1 c=7 v=115
4684 Par ch=1 c=7 v=116
4692 Par ch=1 c=7 v=118
4696 Par ch=1 c=7 v=119
4702 Par ch=1 c=7 v=121
4704 Par ch=1 c=7 v=122
4712 Par ch=1 c=7 v=124
4716 Par ch=1 c=7 v=125
4722 Par ch=1 c=7 v=126
4914 Par ch=1 c=7 v=125
4916 Par ch=1 c=7 v=124
4920 Par ch=1 c=7 v=122
4924 Par ch=1 c=7 v=121
4928 Par ch=1 c=7 v=120
4934 Par ch=1 c=7 v=117
4938 Par ch=1 c=7 v=116
4944 Par ch=1 c=7 v=114
4948 Par ch=1 c=7 v=113
4954 Par ch=1 c=7 v=111
4958 Par ch=1 c=7 v=110
4964 Par ch=1 c=7 v=108
4968 Par ch=1 c=7 v=107
4974 Par ch=1 c=7 v=105
4978 Par ch=1 c=7 v=104
4984 Par ch=1 c=7 v=102
4994 Par ch=1 c=7 v=100
4998 Par ch=1 c=7 v=99
5008 Par ch=1 c=7 v=98
5012 Par ch=1 c=7 v=97
5022 Par ch=1 c=7 v=95
5032 Par ch=1 c=7 v=93
5036 Par ch=1 c=7 v=92
5042 Par ch=1 c=7 v=90
5044 Par ch=1 c=7 v=89
5052 Par ch=1 c=7 v=87
5056 Par ch=1 c=7 v=86
5062 Par ch=1 c=7 v=83
5066 Par ch=1 c=7 v=82
5072 Par ch=1 c=7 v=80
5076 Par ch=1 c=7 v=79
5082 Par ch=1 c=7 v=77
5084 Par ch=1 c=7 v=75
5088 Par ch=1 c=7 v=74
5092 Par ch=1 c=7 v=73
5096 Par ch=1 c=7 v=71
5100 Par ch=1 c=7 v=70
5102 Par ch=1 c=7 v=69
5106 Par ch=1 c=7 v=67
5108 Par ch=1 c=7 v=66
5112 Par ch=1 c=7 v=64
5116 Par ch=1 c=7 v=63
5120 Par ch=1 c=7 v=61
5122 Par ch=1 c=7 v=60
5126 Par ch=1 c=7 v=58
5128 Par ch=1 c=7 v=56
5132 Par ch=1 c=7 v=55
5136 Par ch=1 c=7 v=53
5140 Par ch=1 c=7 v=50
5144 Par ch=1 c=7 v=48
5146 Par ch=1 c=7 v=46
5150 Par ch=1 c=7 v=43
5152 Par ch=1 c=7 v=41
5156 Par ch=1 c=7 v=38
5160 Par ch=1 c=7 v=36
5164 Par ch=1 c=7 v=34
5166 Par ch=1 c=7 v=31
5170 Par ch=1 c=7 v=29
5172 Par ch=1 c=7 v=26
5176 Par ch=1 c=7 v=24
5180 Par ch=1 c=7 v=21
5184 Par ch=1 c=7 v=19
5186 Par ch=1 c=7 v=16
5190 Par ch=1 c=7 v=14
5192 Par ch=1 c=7 v=12
5196 Par ch=1 c=7 v=10
5204 Par ch=1 c=7 v=9
5216 Par ch=1 c=7 v=14
5220 Par ch=1 c=7 v=16
5224 Off ch=1 n=62 v=0
5224 Par ch=1 c=7 v=18
5224 On ch=1 n=63 v=74
5228 Par ch=1 c=7 v=21
5230 Par ch=1 c=7 v=23
5234 Par ch=1 c=7 v=26
5236 Par ch=1 c=7 v=28
5240 Par ch=1 c=7 v=31
5244 Par ch=1 c=7 v=33
5248 Par ch=1 c=7 v=36
5250 Par ch=1 c=7 v=38
5254 Par ch=1 c=7 v=40
5256 Par ch=1 c=7 v=42
5260 Par ch=1 c=7 v=44
5264 Par ch=1 c=7 v=46
5268 Par ch=1 c=7 v=48
5270 Par ch=1 c=7 v=49
5274 Par ch=1 c=7 v=51
5278 Par ch=1 c=7 v=53
5280 Par ch=1 c=7 v=54
5284 Par ch=1 c=7 v=56
5288 Par ch=1 c=7 v=57
5290 Par ch=1 c=7 v=59
5294 Par ch=1 c=7 v=60
5296 Par ch=1 c=7 v=62
5300 Par ch=1 c=7 v=63
5304 Par ch=1 c=7 v=64
5308 Par ch=1 c=7 v=65
5314 Par ch=1 c=7 v=68
5318 Par ch=1 c=7 v=69
5320 Par ch=1 c=7 v=71
5324 Par ch=1 c=7 v=72
5332 Par ch=1 c=7 v=74
5336 Par ch=1 c=7 v=76
5340 Par ch=1 c=7 v=78
5344 Par ch=1 c=7 v=79
5348 Par ch=1 c=7 v=81
5352 Par ch=1 c=7 v=82
5354 Par ch=1 c=7 v=83
5358 Par ch=1 c=7 v=85
5362 Par ch=1 c=7 v=86
5364 Par ch=1 c=7 v=88
5368 Par ch=1 c=7 v=89
5372 Par ch=1 c=7 v=90
5374 Par ch=1 c=7 v=92
5378 Par ch=1 c=7 v=93
5384 Par ch=1 c=7 v=95
5388 Par ch=1 c=7 v=97
5396 Par ch=1 c=7 v=99
5398 Par ch=1 c=7 v=100
5404 Par ch=1 c=7 v=102
5408 Par ch=1 c=7 v=103
5416 Par ch=1 c=7 v=105
5418 Par ch=1 c=7 v=106
5424 Par ch=1 c=7 v=109
5428 Par ch=1 c=7 v=110
5436 Par ch=1 c=7 v=112
5440 Par ch=1 c=7 v=113
5446 Par ch=1 c=7 v=115
5448 Par ch=1 c=7 v=116
5456 Par ch=1 c=7 v=117
5460 Par ch=1 c=7 v=118
5466 Par ch=1 c=7 v=120
5468 Par ch=1 c=7 v=121
5476 Par ch=1 c=7 v=122
5480 Par ch=1 c=7 v=123
5486 Par ch=1 c=7 v=124
5488 Par ch=1 c=7 v=125
5496 Par ch=1 c=7 v=126
5664 Par ch=1 c=7 v=124
5668 Par ch=1 c=7 v=122
5672 Par ch=1 c=7 v=120
5674 Par ch=1 c=7 v=118
5678 Par ch=1 c=7 v=116
5680 Par ch=1 c=7 v=114
5684 Par ch=1 c=7 v=112
5688 Par ch=1 c=7 v=111
5692 Par ch=1 c=7 v=109
5694 Par ch=1 c=7 v=108
5700 Par ch=1 c=7 v=106
5704 Par ch=1 c=7 v=104
5712 Par ch=1 c=7 v=103
5714 Par ch=1 c=7 v=102
5720 Par ch=1 c=7 v=100
5724 Par ch=1 c=7 v=99
5732 Par ch=1 c=7 v=98
5736 Par ch=1 c=7 v=97
5742 Par ch=1 c=7 v=95
5752 Par ch=1 c=7 v=93
5756 Par ch=1 c=7 v=92
5762 Par ch=1 c=7 v=90
5772 Par ch=1 c=7 v=88
5776 Par ch=1 c=7 v=87
5782 Par ch=1 c=7 v=85
5784 Par ch=1 c=7 v=84
5792 Par ch=1 c=7 v=83
5796 Par ch=1 c=7 v=82
5802 Par ch=1 c=7 v=80
5804 Par ch=1 c=7 v=79
5812 Par ch=1 c=7 v=77
5816 Par ch=1 c=7 v=76
5822 Par ch=1 c=7 v=74
5826 Par ch=1 c=7 v=73
5832 Par ch=1 c=7 v=71
5842 Par ch=1 c=7 v=69
5846 Par ch=1 c=7 v=68
5852 Par ch=1 c=7 v=66
5856 Par ch=1 c=7 v=64
5862 Par ch=1 c=7 v=62
5866 Par ch=1 c=7 v=61
5872 Par ch=1 c=7 v=59
5876 Par ch=1 c=7 v=57
5884 Par ch=1 c=7 v=55
5886 Par ch=1 c=7 v=54
5892 Par ch=1 c=7 v=52
5896 Par ch=1 c=7 v=51
5904 Par ch=1 c=7 v=49
5906 Par ch=1 c=7 v=48
5912 Par ch=1 c=7 v=46
5916 Par ch=1 c=7 v=44
5920 Par ch=1 c=7 v=43
5924 Par ch=1 c=7 v=41
5928 Par ch=1 c=7 v=40
5930 Par ch=1 c=7 v=38
5932 Par ch=1 c=7 v=37
5936 Par ch=1 c=7 v=35
5940 Par ch=1 c=7 v=34
5944 Par ch=1 c=7 v=32
5948 Par ch=1 c=7 v=30
5950 Par ch=1 c=7 v=29
5954 Par ch=1 c=7 v=27
5956 Par ch=1 c=7 v=25
5960 Par ch=1 c=7 v=22
5964 Par ch=1 c=7 v=20
5968 Par ch=1 c=7 v=18
5970 Par ch=1 c=7 v=15
5972 Off ch=1 n=63 v=0
5972 On ch=1 n=62 v=74
5974 Par ch=1 c=7 v=12
5976 Par ch=1 c=7 v=9
5980 Par ch=1 c=7 v=7
5984 Par ch=1 c=7 v=4
5988 Par ch=1 c=7 v=2
5990 Par ch=1 c=7 v=0
6004 Par ch=1 c=7 v=2
6008 Par ch=1 c=7 v=4
6010 Par ch=1 c=7 v=7
6014 Par ch=1 c=7 v=10
6018 Par ch=1 c=7 v=14
6020 Par ch=1 c=7 v=17
6024 Par ch=1 c=7 v=20
6028 Par ch=1 c=7 v=22
6032 Par ch=1 c=7 v=25
6034 Par ch=1 c=7 v=27
6038 Par ch=1 c=7 v=29
6040 Par ch=1 c=7 v=32
6044 Par ch=1 c=7 v=34
6048 Par ch=1 c=7 v=36
6052 Par ch=1 c=7 v=38
6054 Par ch=1 c=7 v=40
6058 Par ch=1 c=7 v=42
6062 Par ch=1 c=7 v=43
6064 Par ch=1 c=7 v=45
6068 Par ch=1 c=7 v=47
6072 Par ch=1 c=7 v=48
6074 Par ch=1 c=7 v=50
6078 Par ch=1 c=7 v=51
6082 Par ch=1 c=7 v=53
6084 Par ch=1 c=7 v=54
6088 Par ch=1 c=7 v=56
6092 Par ch=1 c=7 v=57
6096 Par ch=1 c=7 v=58
6098 Par ch=1 c=7 v=60
6100 Par ch=1 c=7 v=61
6104 Par ch=1 c=7 v=63
6108 Par ch=1 c=7 v=64
6112 Par ch=1 c=7 v=65
6116 Par ch=1 c=7 v=67
6118 Par ch=1 c=7 v=68
6122 Par ch=1 c=7 v=70
6124 Par ch=1 c=7 v=71
6128 Par ch=1 c=7 v=73
6132 Par ch=1 c=7 v=74
6136 Par ch=1 c=7 v=76
6140 Par ch=1 c=7 v=77
6142 Par ch=1 c=7 v=79
6144 Par ch=1 c=7 v=80
6148 Par ch=1 c=7 v=81
6152 Par ch=1 c=7 v=83
6156 Par ch=1 c=7 v=84
6162 Par ch=1 c=7 v=86
6166 Par ch=1 c=7 v=88
6172 Par ch=1 c=7 v=90
6176 Par ch=1 c=7 v=91
6182 Par ch=1 c=7 v=93
6186 Par ch=1 c=7 v=94
6192 Par ch=1 c=7 v=97
6196 Par ch=1 c=7 v=98
6202 Par ch=1 c=7 v=100
6206 Par ch=1 c=7 v=101
6212 Par ch=1 c=7 v=103
6216 Par ch=1 c=7 v=105
6224 Par ch=1 c=7 v=107
6226 Par ch=1 c=7 v=108
6232 Par ch=1 c=7 v=110
6244 Par ch=1 c=7 v=112
6246 Par ch=1 c=7 v=113
6252 Par ch=1 c=7 v=115
6264 Par ch=1 c=7 v=117
6266 Par ch=1 c=7 v=118
6272 Par ch=1 c=7 v=120
6276 Par ch=1 c=7 v=121
6284 Par ch=1 c=7 v=123
6286 Par ch=1 c=7 v=124
6292 Par ch=1 c=7 v=126
6442 Par ch=1 c=7 v=124
6444 Par ch=1 c=7 v=122
6452 Par ch=1 c=7 v=120
6456 Par ch=1 c=7 v=119
6462 Par ch=1 c=7 v=117
6464 Par ch=1 c=7 v=116
6472 Par ch=1 c=7 v=113
6476 Par ch=1 c=7 v=112
6482 Par ch=1 c=7 v=111
6484 Par ch=1 c=7 v=110
6492 Par ch=1 c=7 v=108
6496 Par ch=1 c=7 v=107
6502 Par ch=1 c=7 v=106
6504 Par ch=1 c=7 v=105
6512 Par ch=1 c=7 v=104
6516 Par ch=1 c=7 v=103
6522 Par ch=1 c=7 v=102
6526 Par ch=1 c=7 v=101
6532 Par ch=1 c=7 v=100
6536 Par ch=1 c=7 v=99
6542 Par ch=1 c=7 v=97
6546 Par ch=1 c=7 v=96
6552 Par ch=1 c=7 v=95
6556 Par ch=1 c=7 v=94
6562 Par ch=1 c=7 v=93
6566 Par ch=1 c=7 v=92
6572 Par ch=1 c=7 v=90
6576 Par ch=1 c=7 v=89
6584 Par ch=1 c=7 v=88
6586 Par ch=1 c=7 v=87
6592 Par ch=1 c=7 v=85
6596 Par ch=1 c=7 v=84
6604 Par ch=1 c=7 v=82
6606 Par ch=1 c=7 v=81
6612 Par ch=1 c=7 v=78
6616 Par ch=1 c=7 v=77
6620 Par ch=1 c=7 v=76
6624 Par ch=1 c=7 v=74
6628 Par ch=1 c=7 v=73
6630 Par ch=1 c=7 v=72
6634 Par ch=1 c=7 v=70
6640 Par ch=1 c=7 v=68
6644 Par ch=1 c=7 v=67
6648 Par ch=1 c=7 v=65
6650 Par ch=1 c=7 v=64
6654 Par ch=1 c=7 v=63
6656 Par ch=1 c=7 v=61
6660 Par ch=1 c=7 v=60
6664 Par ch=1 c=7 v=58
6668 Par ch=1 c=7 v=57
6670 Par ch=1 c=7 v=55
6674 Par ch=1 c=7 v=54
6678 Par ch=1 c=7 v=52
6680 Par ch=1 c=7 v=50
6684 Par ch=1 c=7 v=49
6688 Par ch=1 c=7 v=47
6690 Par ch=1 c=7 v=45
6694 Par ch=1 c=7 v=43
6696 Par ch=1 c=7 v=41
6700 Par ch=1 c=7 v=39
6704 Par ch=1 c=7 v=37
6708 Par ch=1 c=7 v=35
6712 Par ch=1 c=7 v=33
6714 Par ch=1 c=7 v=30
6718 Off ch=1 n=62 v=0
6718 Par ch=1 c=7 v=28
6718 On ch=1 n=63 v=74
6720 Par ch=1 c=7 v=25
6724 Par ch=1 c=7 v=23
6728 Par ch=1 c=7 v=21
6732 Par ch=1 c=7 v=19
6738 Par ch=1 c=7 v=17
6752 Par ch=1 c=7 v=19
6754 Par ch=1 c=7 v=20
6758 Par ch=1 c=7 v=22
6762 Par ch=1 c=7 v=24
6764 Par ch=1 c=7 v=27
6768 Par ch=1 c=7 v=29
6772 Par ch=1 c=7 v=32
6776 Par ch=1 c=7 v=34
6778 Par ch=1 c=7 v=37
6782 Par ch=1 c=7 v=40
6784 Par ch=1 c=7 v=43
6788 Par ch=1 c=7 v=45
6792 Par ch=1 c=7 v=48
6796 Par ch=1 c=7 v=50
6798 Par ch=1 c=7 v=52
6802 Par ch=1 c=7 v=54
6804 Par ch=1 c=7 v=56
6808 Par ch=1 c=7 v=57
6812 Par ch=1 c=7 v=59
6816 Par ch=1 c=7 v=60
6820 Par ch=1 c=7 v=62
6822 Par ch=1 c=7 v=63
6824 Par ch=1 c=7 v=64
6828 Par ch=1 c=7 v=66
6832 Par ch=1 c=7 v=67
6836 Par ch=1 c=7 v=68
6840 Par ch=1 c=7 v=70
6842 Par ch=1 c=7 v=71
6846 Par ch=1 c=7 v=73
6848 Par ch=1 c=7 v=74
6852 Par ch=1 c=7 v=76
6856 Par ch=1 c=7 v=77
6860 Par ch=1 c=7 v=79
6862 Par ch=1 c=7 v=80
6866 Par ch=1 c=7 v=81
6870 Par ch=1 c=7 v=83
6872 Par ch=1 c=7 v=84
6876 Par ch=1 c=7 v=85
6880 Par ch=1 c=7 v=87
6882 Par ch=1 c=7 v=88
6886 Par ch=1 c=7 v=89
6888 Par ch=1 c=7 v=91
6892 Par ch=1 c=7 v=92
6896 Par ch=1 c=7 v=94
6900 Par ch=1 c=7 v=95
6904 Par ch=1 c=7 v=97
6906 Par ch=1 c=7 v=98
6910 Par ch=1 c=7 v=100
6912 Par ch=1 c=7 v=101
6916 Par ch=1 c=7 v=102
6924 Par ch=1 c=7 v=104
6926 Par ch=1 c=7 v=105
6932 Par ch=1 c=7 v=107
6936 Par ch=1 c=7 v=108
6944 Par ch=1 c=7 v=110
6946 Par ch=1 c=7 v=111
6952 Par ch=1 c=7 v=113
6956 Par ch=1 c=7 v=114
6964 Par ch=1 c=7 v=116
6966 Par ch=1 c=7 v=117
6974 Par ch=1 c=7 v=119
6976 Par ch=1 c=7 v=120
6984 Par ch=1 c=7 v=122
6988 Par ch=1 c=7 v=123
6992 Par ch=1 c=7 v=125
6996 Par ch=1 c=7 v=126
7158 Par ch=1 c=7 v=124
7162 Par ch=1 c=7 v=122
7166 Par ch=1 c=7 v=121
7168 Par ch=1 c=7 v=119
7172 Par ch=1 c=7 v=117
7176 Par ch=1 c=7 v=116
7178 Par ch=1 c=7 v=114
7182 Par ch=1 c=7 v=113
7184 Par ch=1 c=7 v=111
7188 Par ch=1 c=7 v=110
7196 Par ch=1 c=7 v=108
7200 Par ch=1 c=7 v=107
7206 Par ch=1 c=7 v=105
7208 Par ch=1 c=7 v=104
7216 Par ch=1 c=7 v=102
7226 Par ch=1 c=7 v=100
7228 Par ch=1 c=7 v=99
7236 Par ch=1 c=7 v=97
7240 Par ch=1 c=7 v=96
7246 Par ch=1 c=7 v=95
7248 Par ch=1 c=7 v=94
7256 Par ch=1 c=7 v=92
7260 Par ch=1 c=7 v=91
7266 Par ch=1 c=7 v=90
7270 Par ch=1 c=7 v=89
7276 Par ch=1 c=7 v=87
7280 Par ch=1 c=7 v=86
7286 Par ch=1 c=7 v=85
7290 Par ch=1 c=7 v=84
7296 Par ch=1 c=7 v=82
7306 Par ch=1 c=7 v=80
7310 Par ch=1 c=7 v=79
7316 Par ch=1 c=7 v=78
7320 Par ch=1 c=7 v=77
7328 Par ch=1 c=7 v=74
7330 Par ch=1 c=7 v=73
7334 Par ch=1 c=7 v=72
7336 Par ch=1 c=7 v=70
7340 Par ch=1 c=7 v=69
7344 Par ch=1 c=7 v=67
7348 Par ch=1 c=7 v=66
7350 Par ch=1 c=7 v=64
7354 Par ch=1 c=7 v=63
7356 Par ch=1 c=7 v=61
7360 Par ch=1 c=7 v=60
7364 Par ch=1 c=7 v=58
7368 Par ch=1 c=7 v=57
7370 Par ch=1 c=7 v=56
7374 Par ch=1 c=7 v=54
7378 Par ch=1 c=7 v=53
7380 Par ch=1 c=7 v=51
7384 Par ch=1 c=7 v=50
7388 Par ch=1 c=7 v=49
7390 Par ch=1 c=7 v=47
7394 Par ch=1 c=7 v=45
7396 Par ch=1 c=7 v=44
7400 Par ch=1 c=7 v=42
7404 Par ch=1 c=7 v=41
7408 Par ch=1 c=7 v=39
7412 Par ch=1 c=7 v=38
7414 Par ch=1 c=7 v=36
7418 Par ch=1 c=7 v=35
7420 Par ch=1 c=7 v=34
7424 Par ch=1 c=7 v=32
7428 Par ch=1 c=7 v=31
7434 Par ch=1 c=7 v=29
7438 Par ch=1 c=7 v=27
7440 Par ch=1 c=7 v=26
7444 Par ch=1 c=7 v=25
7448 Par ch=1 c=7 v=23
7452 Par ch=1 c=7 v=22
7454 Par ch=1 c=7 v=20
7458 Par ch=1 c=7 v=18
7462 Par ch=1 c=7 v=16
7464 Off ch=1 n=63 v=0
7464 Par ch=1 c=7 v=13
7464 On ch=1 n=62 v=74
7468 Par ch=1 c=7 v=11
7472 Par ch=1 c=7 v=9
7474 Par ch=1 c=7 v=6
7478 Par ch=1 c=7 v=4
7482 Par ch=1 c=7 v=3
7488 Par ch=1 c=7 v=1
7498 Par ch=1 c=7 v=6
7502 Par ch=1 c=7 v=9
7504 Par ch=1 c=7 v=13
7508 Par ch=1 c=7 v=16
7512 Par ch=1 c=7 v=21
7516 Par ch=1 c=7 v=25
7518 Par ch=1 c=7 v=29
7522 Par ch=1 c=7 v=32
7524 Par ch=1 c=7 v=36
7528 Par ch=1 c=7 v=39
7532 Par ch=1 c=7 v=42
7536 Par ch=1 c=7 v=45
7540 Par ch=1 c=7 v=47
7542 Par ch=1 c=7 v=50
7546 Par ch=1 c=7 v=52
7548 Par ch=1 c=7 v=54
7552 Par ch=1 c=7 v=56
7556 Par ch=1 c=7 v=58
7558 Par ch=1 c=7 v=60
7562 Par ch=1 c=7 v=61
7566 Par ch=1 c=7 v=63
7568 Par ch=1 c=7 v=64
7572 Par ch=1 c=7 v=66
7576 Par ch=1 c=7 v=67
7580 Par ch=1 c=7 v=69
7582 Par ch=1 c=7 v=70
7586 Par ch=1 c=7 v=71
7588 Par ch=1 c=7 v=73
7592 Par ch=1 c=7 v=75
7596 Par ch=1 c=7 v=76
7600 Par ch=1 c=7 v=78
7602 Par ch=1 c=7 v=79
7606 Par ch=1 c=7 v=81
7608 Par ch=1 c=7 v=82
7612 Par ch=1 c=7 v=84
7616 Par ch=1 c=7 v=85
7620 Par ch=1 c=7 v=87
7624 Par ch=1 c=7 v=88
7626 Par ch=1 c=7 v=90
7630 Par ch=1 c=7 v=91
7632 Par ch=1 c=7 v=93
7636 Par ch=1 c=7 v=95
7640 Par ch=1 c=7 v=96
7644 Par ch=1 c=7 v=98
7646 Par ch=1 c=7 v=100
7650 Par ch=1 c=7 v=101
7652 Par ch=1 c=7 v=103
7656 Par ch=1 c=7 v=104
7660 Par ch=1 c=7 v=106
7664 Par ch=1 c=7 v=107
7670 Par ch=1 c=7 v=109
7674 Par ch=1 c=7 v=110
7680 Par ch=1 c=7 v=112
7684 Par ch=1 c=7 v=113
7690 Par ch=1 c=7 v=115
7692 Par ch=1 c=7 v=116
7700 Par ch=1 c=7 v=118
7704 Par ch=1 c=7 v=120
7708 Par ch=1 c=7 v=121
7710 Par ch=1 c=7 v=122
7714 Par ch=1 c=7 v=124
7716 Par ch=1 c=7 v=125
7720 Par ch=1 c=7 v=126
7888 Par ch=1 c=7 v=125
7892 Par ch=1 c=7 v=123
7898 Par ch=1 c=7 v=121
7902 Par ch=1 c=7 v=120
7908 Par ch=1 c=7 v=117
7912 Par ch=1 c=7 v=116
7920 Par ch=1 c=7 v=114
7922 Par ch=1 c=7 v=113
7928 Par ch=1 c=7 v=111
7940 Par ch=1 c=7 v=109
7942 Par ch=1 c=7 v=108
7948 Par ch=1 c=7 v=107
7952 Par ch=1 c=7 v=106
7960 Par ch=1 c=7 v=104
7962 Par ch=1 c=7 v=103
7970 Par ch=1 c=7 v=100
7972 Par ch=1 c=7 v=99
7980 Par ch=1 c=7 v=97
7982 Par ch=1 c=7 v=96
7990 Par ch=1 c=7 v=94
7992 Par ch=1 c=7 v=93
8000 Par ch=1 c=7 v=91
8004 Par ch=1 c=7 v=90
8010 Par ch=1 c=7 v=88
8012 Par ch=1 c=7 v=87
8020 Par ch=1 c=7 v=85
8024 Par ch=1 c=7 v=84
8030 Par ch=1 c=7 v=82
8032 Par ch=1 c=7 v=81
8040 Par ch=1 c=7 v=79
8044 Par ch=1 c=7 v=78
8050 Par ch=1 c=7 v=76
8054 Par ch=1 c=7 v=75
8060 Par ch=1 c=7 v=73
8064 Par ch=1 c=7 v=72
8070 Par ch=1 c=7 v=69
8074 Par ch=1 c=7 v=68
8080 Par ch=1 c=7 v=66
8084 Par ch=1 c=7 v=65
8090 Par ch=1 c=7 v=62
8094 Par ch=1 c=7 v=61
8096 Par ch=1 c=7 v=60
8100 Par ch=1 c=7 v=59
8108 Par ch=1 c=7 v=56
8110 Par ch=1 c=7 v=55
8114 Par ch=1 c=7 v=54
8116 Par ch=1 c=7 v=52
8120 Par ch=1 c=7 v=51
8128 Par ch=1 c=7 v=48
8132 Par ch=1 c=7 v=47
8134 Par ch=1 c=7 v=46
8138 Par ch=1 c=7 v=44
8140 Par ch=1 c=7 v=43
8144 Par ch=1 c=7 v=42
8148 Par ch=1 c=7 v=40
8152 Par ch=1 c=7 v=39
8154 Par ch=1 c=7 v=38
8158 Par ch=1 c=7 v=36
8160 Par ch=1 c=7 v=35
8164 Par ch=1 c=7 v=33
8168 Par ch=1 c=7 v=32
8172 Par ch=1 c=7 v=30
8174 Par ch=1 c=7 v=29
8178 Par ch=1 c=7 v=27
8182 Par ch=1 c=7 v=25
8184 Par ch=1 c=7 v=24
8188 Par ch=1 c=7 v=22
8192 Par ch=1 c=7 v=20
8196 Par ch=1 c=7 v=18
8200 Par ch=1 c=7 v=17
8204 Par ch=1 c=7 v=16
8212 Off ch=1 n=62 v=0
8212 Par ch=1 c=7 v=18
8212 On ch=1 n=63 v=74
8216 Par ch=1 c=7 v=19
8218 Par ch=1 c=7 v=21
8222 Par ch=1 c=7 v=23
8224 Par ch=1 c=7 v=25
8228 Par ch=1 c=7 v=27
8232 Par ch=1 c=7 v=29
8236 Par ch=1 c=7 v=31
8238 Par ch=1 c=7 v=33
8242 Par ch=1 c=7 v=35
8244 Par ch=1 c=7 v=37
8248 Par ch=1 c=7 v=39
8252 Par ch=1 c=7 v=40
8256 Par ch=1 c=7 v=42
8258 Par ch=1 c=7 v=44
8262 Par ch=1 c=7 v=45
8266 Par ch=1 c=7 v=46
8268 Par ch=1 c=7 v=47
8276 Par ch=1 c=7 v=50
8280 Par ch=1 c=7 v=51
8286 Par ch=1 c=7 v=53
8288 Par ch=1 c=7 v=55
8296 Par ch=1 c=7 v=57
8300 Par ch=1 c=7 v=58
8306 Par ch=1 c=7 v=61
8308 Par ch=1 c=7 v=62
8316 Par ch=1 c=7 v=64
8320 Par ch=1 c=7 v=66
8324 Par ch=1 c=7 v=67
8326 Par ch=1 c=7 v=68
8328 Par ch=1 c=7 v=70
8332 Par ch=1 c=7 v=71
8336 Par ch=1 c=7 v=73
8340 Par ch=1 c=7 v=74
8344 Par ch=1 c=7 v=76
8346 Par ch=1 c=7 v=78
8350 Par ch=1 c=7 v=79
8352 Par ch=1 c=7 v=81
8356 Par ch=1 c=7 v=82
8360 Par ch=1 c=7 v=83
8364 Par ch=1 c=7 v=85
8366 Par ch=1 c=7 v=86
8372 Par ch=1 c=7 v=88
8376 Par ch=1 c=7 v=89
8384 Par ch=1 c=7 v=92
8392 Par ch=1 c=7 v=94
8396 Par ch=1 c=7 v=95
8404 Par ch=1 c=7 v=97
8406 Par ch=1 c=7 v=98
8414 Par ch=1 c=7 v=100
8416 Par ch=1 c=7 v=101
8424 Par ch=1 c=7 v=104
8428 Par ch=1 c=7 v=105
8434 Par ch=1 c=7 v=107
8436 Par ch=1 c=7 v=108
8444 Par ch=1 c=7 v=110
8448 Par ch=1 c=7 v=111
8454 Par ch=1 c=7 v=113
8456 Par ch=1 c=7 v=114
8464 Par ch=1 c=7 v=116
8468 Par ch=1 c=7 v=117
8474 Par ch=1 c=7 v=119
8478 Par ch=1 c=7 v=120
8484 Par ch=1 c=7 v=122
8488 Par ch=1 c=7 v=123
8494 Par ch=1 c=7 v=126
8640 Par ch=1 c=7 v=125
8642 Par ch=1 c=7 v=123
8646 Par ch=1 c=7 v=122
8648 Par ch=1 c=7 v=120
8652 Par ch=1 c=7 v=119
8656 Par ch=1 c=7 v=117
8660 Par ch=1 c=7 v=116
8662 Par ch=1 c=7 v=114
8666 Par ch=1 c=7 v=113
8672 Par ch=1 c=7 v=111
8676 Par ch=1 c=7 v=110
8682 Par ch=1 c=7 v=108
8686 Par ch=1 c=7 v=107
8692 Par ch=1 c=7 v=105
8696 Par ch=1 c=7 v=104
8704 Par ch=1 c=7 v=102
8706 Par ch=1 c=7 v=101
8712 Par ch=1 c=7 v=98
8716 Par ch=1 c=7 v=97
8724 Par ch=1 c=7 v=95
8726 Par ch=1 c=7 v=94
8732 Par ch=1 c=7 v=92
8736 Par ch=1 c=7 v=91
8744 Par ch=1 c=7 v=89
8748 Par ch=1 c=7 v=88
8754 Par ch=1 c=7 v=86
8756 Par ch=1 c=7 v=85
8764 Par ch=1 c=7 v=84
8766 Par ch=1 c=7 v=83
8774 Par ch=1 c=7 v=81
8776 Par ch=1 c=7 v=80
8784 Par ch=1 c=7 v=78
8788 Par ch=1 c=7 v=77
8794 Par ch=1 c=7 v=76
8796 Par ch=1 c=7 v=75
8804 Par ch=1 c=7 v=73
8814 Par ch=1 c=7 v=71
8816 Par ch=1 c=7 v=70
8824 Par ch=1 c=7 v=69
8828 Par ch=1 c=7 v=68
8834 Par ch=1 c=7 v=66
8844 Par ch=1 c=7 v=64
8848 Par ch=1 c=7 v=63
8854 Par ch=1 c=7 v=62
8858 Par ch=1 c=7 v=61
8864 Par ch=1 c=7 v=60
8868 Par ch=1 c=7 v=59
8874 Par ch=1 c=7 v=58
8878 Par ch=1 c=7 v=57
8884 Par ch=1 c=7 v=56
8888 Par ch=1 c=7 v=55
8894 Par ch=1 c=7 v=52
8898 Par ch=1 c=7 v=51
8900 Par ch=1 c=7 v=50
8908 Par ch=1 c=7 v=47
8912 Par ch=1 c=7 v=46
8916 Par ch=1 c=7 v=45
8922 Par ch=1 c=7 v=42
8924 Par ch=1 c=7 v=41
8928 Par ch=1 c=7 v=39
8932 Par ch=1 c=7 v=38
8936 Par ch=1 c=7 v=36
8938 Par ch=1 c=7 v=35
8942 Par ch=1 c=7 v=33
8944 Par ch=1 c=7 v=31
8948 Par ch=1 c=7 v=29
8952 Par ch=1 c=7 v=27
8956 Par ch=1 c=7 v=25
8958 Off ch=1 n=63 v=0
8958 On ch=1 n=62 v=74
8962 Par ch=1 c=7 v=11
8964 Par ch=1 c=7 v=9
8968 Par ch=1 c=7 v=6
8972 Par ch=1 c=7 v=4
8976 Par ch=1 c=7 v=3
8982 Par ch=1 c=7 v=1
8992 Par ch=1 c=7 v=6
8996 Par ch=1 c=7 v=9
8998 Par ch=1 c=7 v=13
9002 Par ch=1 c=7 v=16
9004 Par ch=1 c=7 v=21
9008 Par ch=1 c=7 v=25
9012 Par ch=1 c=7 v=29
9016 Par ch=1 c=7 v=32
9018 Par ch=1 c=7 v=36
9022 Par ch=1 c=7 v=39
9024 Par ch=1 c=7 v=42
9028 Par ch=1 c=7 v=45
9032 Par ch=1 c=7 v=47
9036 Par ch=1 c=7 v=50
9040 Par ch=1 c=7 v=52
9042 Par ch=1 c=7 v=54
9044 Par ch=1 c=7 v=56
9048 Par ch=1 c=7 v=58
9052 Par ch=1 c=7 v=60
9056 Par ch=1 c=7 v=61
9060 Par ch=1 c=7 v=63
9062 Par ch=1 c=7 v=64
9066 Par ch=1 c=7 v=66
9068 Par ch=1 c=7 v=67
9072 Par ch=1 c=7 v=69
9076 Par ch=1 c=7 v=70
9080 Par ch=1 c=7 v=71
9082 Par ch=1 c=7 v=73
9086 Par ch=1 c=7 v=75
9090 Par ch=1 c=7 v=76
9092 Par ch=1 c=7 v=78
9096 Par ch=1 c=7 v=79
9100 Par ch=1 c=7 v=81
9102 Par ch=1 c=7 v=82
9106 Par ch=1 c=7 v=84
9110 Par ch=1 c=7 v=85
9112 Par ch=1 c=7 v=87
9116 Par ch=1 c=7 v=88
9120 Par ch=1 c=7 v=90
9124 Par ch=1 c=7 v=91
9126 Par ch=1 c=7 v=93
9130 Par ch=1 c=7 v=95
9132 Par ch=1 c=7 v=96
9136 Par ch=1 c=7 v=98
9140 Par ch=1 c=7 v=100
9144 Par ch=1 c=7 v=101
9146 Par ch=1 c=7 v=103
9150 Par ch=1 c=7 v=104
9152 Par ch=1 c=7 v=106
9156 Par ch=1 c=7 v=107
9164 Par ch=1 c=7 v=109
9168 Par ch=1 c=7 v=110
9172 Par ch=1 c=7 v=112
9176 Par ch=1 c=7 v=113
9184 Par ch=1 c=7 v=115
9186 Par ch=1 c=7 v=116
9194 Par ch=1 c=7 v=118
9196 Par ch=1 c=7 v=120
9200 Par ch=1 c=7 v=121
9204 Par ch=1 c=7 v=122
9208 Par ch=1 c=7 v=124
9210 Par ch=1 c=7 v=125
9214 Par ch=1 c=7 v=126
9382 Par ch=1 c=7 v=125
9386 Par ch=1 c=7 v=123
9392 Par ch=1 c=7 v=121
9396 Par ch=1 c=7 v=120
9402 Par ch=1 c=7 v=117
9406 Par ch=1 c=7 v=116
9412 Par ch=1 c=7 v=114
9416 Par ch=1 c=7 v=113
9422 Par ch=1 c=7 v=111
9432 Par ch=1 c=7 v=109
9436 Par ch=1 c=7 v=108
9442 Par ch=1 c=7 v=107
9446 Par ch=1 c=7 v=106
9452 Par ch=1 c=7 v=104
9456 Par ch=1 c=7 v=103
9464 Par ch=1 c=7 v=100
9466 Par ch=1 c=7 v=99
9472 Par ch=1 c=7 v=97
9476 Par ch=1 c=7 v=96
9484 Par ch=1 c=7 v=94
9486 Par ch=1 c=7 v=93
9492 Par ch=1 c=7 v=91
9496 Par ch=1 c=7 v=90
9504 Par ch=1 c=7 v=88
9506 Par ch=1 c=7 v=87
9512 Par ch=1 c=7 v=85
9516 Par ch=1 c=7 v=84
9524 Par ch=1 c=7 v=82
9526 Par ch=1 c=7 v=81
9532 Par ch=1 c=7 v=79
9536 Par ch=1 c=7 v=78
9544 Par ch=1 c=7 v=76
9548 Par ch=1 c=7 v=75
9554 Par ch=1 c=7 v=73
9556 Par ch=1 c=7 v=72
9564 Par ch=1 c=7 v=69
9568 Par ch=1 c=7 v=68
9574 Par ch=1 c=7 v=66
9576 Par ch=1 c=7 v=65
9584 Par ch=1 c=7 v=62
9588 Par ch=1 c=7 v=61
9590 Par ch=1 c=7 v=60
9594 Par ch=1 c=7 v=59
9600 Par ch=1 c=7 v=56
9604 Par ch=1 c=7 v=55
9608 Par ch=1 c=7 v=54
9610 Par ch=1 c=7 v=52
9614 Par ch=1 c=7 v=51
9620 Par ch=1 c=7 v=48
9624 Par ch=1 c=7 v=47
9628 Par ch=1 c=7 v=46
9632 Par ch=1 c=7 v=44
9634 Par ch=1 c=7 v=43
9638 Par ch=1 c=7 v=42
9640 Par ch=1 c=7 v=40
9644 Par ch=1 c=7 v=39
9648 Par ch=1 c=7 v=38
9652 Par ch=1 c=7 v=36
9654 Par ch=1 c=7 v=35
9658 Par ch=1 c=7 v=33
9660 Par ch=1 c=7 v=32
9664 Par ch=1 c=7 v=30
9668 Par ch=1 c=7 v=29
9672 Par ch=1 c=7 v=27
9676 Par ch=1 c=7 v=25
9678 Par ch=1 c=7 v=24
9682 Par ch=1 c=7 v=22
9684 Par ch=1 c=7 v=20
9688 Par ch=1 c=7 v=18
9694 Par ch=1 c=7 v=17
9698 Par ch=1 c=7 v=16
9704 Off ch=1 n=62 v=0
9704 Par ch=1 c=7 v=18
9704 On ch=1 n=63 v=74
9708 Par ch=1 c=7 v=19
9712 Par ch=1 c=7 v=21
9716 Par ch=1 c=7 v=23
9718 Par ch=1 c=7 v=25
9722 Par ch=1 c=7 v=27
9724 Par ch=1 c=7 v=29
9728 Par ch=1 c=7 v=31
9732 Par ch=1 c=7 v=33
9736 Par ch=1 c=7 v=35
9738 Par ch=1 c=7 v=37
9742 Par ch=1 c=7 v=39
9744 Par ch=1 c=7 v=40
9748 Par ch=1 c=7 v=42
9752 Par ch=1 c=7 v=44
9756 Par ch=1 c=7 v=45
9760 Par ch=1 c=7 v=46
9762 Par ch=1 c=7 v=47
9768 Par ch=1 c=7 v=50
9772 Par ch=1 c=7 v=51
9780 Par ch=1 c=7 v=53
9782 Par ch=1 c=7 v=55
9788 Par ch=1 c=7 v=57
9792 Par ch=1 c=7 v=58
9800 Par ch=1 c=7 v=61
9802 Par ch=1 c=7 v=62
9810 Par ch=1 c=7 v=64
9812 Par ch=1 c=7 v=66
9816 Par ch=1 c=7 v=67
9820 Par ch=1 c=7 v=68
9822 Par ch=1 c=7 v=70
9826 Par ch=1 c=7 v=71
9828 Par ch=1 c=7 v=73
9832 Par ch=1 c=7 v=74
9836 Par ch=1 c=7 v=76
9840 Par ch=1 c=7 v=78
9844 Par ch=1 c=7 v=79
9846 Par ch=1 c=7 v=81
9850 Par ch=1 c=7 v=82
9852 Par ch=1 c=7 v=83
9856 Par ch=1 c=7 v=85
9860 Par ch=1 c=7 v=86
9866 Par ch=1 c=7 v=88
9870 Par ch=1 c=7 v=89
9876 Par ch=1 c=7 v=92
9886 Par ch=1 c=7 v=94
9890 Par ch=1 c=7 v=95
9896 Par ch=1 c=7 v=97
9900 Par ch=1 c=7 v=98
9908 Par ch=1 c=7 v=100
9910 Par ch=1 c=7 v=101
9916 Par ch=1 c=7 v=104
9920 Par ch=1 c=7 v=105
9928 Par ch=1 c=7 v=107
9930 Par ch=1 c=7 v=108
9936 Par ch=1 c=7 v=110
9940 Par ch=1 c=7 v=111
9948 Par ch=1 c=7 v=113
9950 Par ch=1 c=7 v=114
9956 Par ch=1 c=7 v=116
9960 Par ch=1 c=7 v=117
9968 Par ch=1 c=7 v=119
9972 Par ch=1 c=7 v=120
9978 Par ch=1 c=7 v=122
9980 Par ch=1 c=7 v=123
9988 Par ch=1 c=7 v=126
10132 Par ch=1 c=7 v=125
10136 Par ch=1 c=7 v=123
10140 Par ch=1 c=7 v=122
10142 Par ch=1 c=7 v=120
10146 Par ch=1 c=7 v=119
10148 Par ch=1 c=7 v=117
10152 Par ch=1 c=7 v=116
10156 Par ch=1 c=7 v=114
10160 Par ch=1 c=7 v=113
10166 Par ch=1 c=7 v=111
10168 Par ch=1 c=7 v=110
10176 Par ch=1 c=7 v=108
10180 Par ch=1 c=7 v=107
10186 Par ch=1 c=7 v=105
10190 Par ch=1 c=7 v=104
10196 Par ch=1 c=7 v=102
10200 Par ch=1 c=7 v=101
10206 Par ch=1 c=7 v=98
10210 Par ch=1 c=7 v=97
10216 Par ch=1 c=7 v=95
10220 Par ch=1 c=7 v=94
10226 Par ch=1 c=7 v=92
10230 Par ch=1 c=7 v=91
10236 Par ch=1 c=7 v=89
10240 Par ch=1 c=7 v=88
10248 Par ch=1 c=7 v=86
10250 Par ch=1 c=7 v=85
10256 Par ch=1 c=7 v=84
10260 Par ch=1 c=7 v=83
10268 Par ch=1 c=7 v=81
10270 Par ch=1 c=7 v=80
10276 Par ch=1 c=7 v=78
10280 Par ch=1 c=7 v=77
10288 Par ch=1 c=7 v=76
10290 Par ch=1 c=7 v=75
10296 Par ch=1 c=7 v=73
10308 Par ch=1 c=7 v=71
10310 Par ch=1 c=7 v=70
10318 Par ch=1 c=7 v=69
10320 Par ch=1 c=7 v=68
10328 Par ch=1 c=7 v=66
10338 Par ch=1 c=7 v=64
10340 Par ch=1 c=7 v=63
10348 Par ch=1 c=7 v=62
10352 Par ch=1 c=7 v=61
10358 Par ch=1 c=7 v=60
10360 Par ch=1 c=7 v=59
10368 Par ch=1 c=7 v=58
10372 Par ch=1 c=7 v=57
10378 Par ch=1 c=7 v=56
10380 Par ch=1 c=7 v=55
10388 Par ch=1 c=7 v=52
10392 Par ch=1 c=7 v=51
10394 Par ch=1 c=7 v=50
10402 Par ch=1 c=7 v=47
10404 Par ch=1 c=7 v=46
10408 Par ch=1 c=7 v=45
10416 Par ch=1 c=7 v=42
10418 Par ch=1 c=7 v=41
10422 Par ch=1 c=7 v=39
10424 Par ch=1 c=7 v=38
10428 Par ch=1 c=7 v=36
10432 Par ch=1 c=7 v=35
10436 Par ch=1 c=7 v=33
10438 Par ch=1 c=7 v=31
10442 Par ch=1 c=7 v=29
10444 Par ch=1 c=7 v=27
10448 Par ch=1 c=7 v=25
10452 Off ch=1 n=63 v=0
10452 Par ch=1 c=7 v=15
10452 On ch=1 n=62 v=74
10456 Par ch=1 c=7 v=18
10460 Par ch=1 c=7 v=21
10464 Par ch=1 c=7 v=24
10466 Par ch=1 c=7 v=27
10470 Par ch=1 c=7 v=30
10474 Par ch=1 c=7 v=33
10476 Par ch=1 c=7 v=35
10480 Par ch=1 c=7 v=38
10484 Par ch=1 c=7 v=41
10488 Par ch=1 c=7 v=44
10490 Par ch=1 c=7 v=46
10492 Par ch=1 c=7 v=49
10496 Par ch=1 c=7 v=51
10500 Par ch=1 c=7 v=53
10504 Par ch=1 c=7 v=55
10508 Par ch=1 c=7 v=57
10510 Par ch=1 c=7 v=59
10514 Par ch=1 c=7 v=61
10516 Par ch=1 c=7 v=63
10520 Par ch=1 c=7 v=64
10524 Par ch=1 c=7 v=66
10528 Par ch=1 c=7 v=68
10530 Par ch=1 c=7 v=69
10534 Par ch=1 c=7 v=71
10536 Par ch=1 c=7 v=72
10540 Par ch=1 c=7 v=74
10544 Par ch=1 c=7 v=76
10548 Par ch=1 c=7 v=77
10552 Par ch=1 c=7 v=78
10554 Par ch=1 c=7 v=80
10558 Par ch=1 c=7 v=81
10564 Par ch=1 c=7 v=84
10568 Par ch=1 c=7 v=85
10574 Par ch=1 c=7 v=87
10578 Par ch=1 c=7 v=89
10580 Par ch=1 c=7 v=90
10584 Par ch=1 c=7 v=91
10588 Par ch=1 c=7 v=93
10592 Par ch=1 c=7 v=94
10594 Par ch=1 c=7 v=96
10598 Par ch=1 c=7 v=97
10600 Par ch=1 c=7 v=99
10604 Par ch=1 c=7 v=100
10608 Par ch=1 c=7 v=101
10616 Par ch=1 c=7 v=103
10618 Par ch=1 c=7 v=105
10624 Par ch=1 c=7 v=107
10628 Par ch=1 c=7 v=108
10636 Par ch=1 c=7 v=109
10638 Par ch=1 c=7 v=110
10644 Par ch=1 c=7 v=112
10648 Par ch=1 c=7 v=113
10656 Par ch=1 c=7 v=115
10658 Par ch=1 c=7 v=116
10664 Par ch=1 c=7 v=118
10668 Par ch=1 c=7 v=119
10676 Par ch=1 c=7 v=121
10678 Par ch=1 c=7 v=122
10684 Par ch=1 c=7 v=124
10688 Par ch=1 c=7 v=125
10696 Par ch=1 c=7 v=126
10888 Par ch=1 c=7 v=125
10890 Par ch=1 c=7 v=124
10894 Par ch=1 c=7 v=122
10896 Par ch=1 c=7 v=121
10900 Par ch=1 c=7 v=120
10908 Par ch=1 c=7 v=117
10912 Par ch=1 c=7 v=116
10918 Par ch=1 c=7 v=114
10920 Par ch=1 c=7 v=113
10928 Par ch=1 c=7 v=111
10932 Par ch=1 c=7 v=110
10938 Par ch=1 c=7 v=108
10940 Par ch=1 c=7 v=107
10948 Par ch=1 c=7 v=105
10952 Par ch=1 c=7 v=104
10958 Par ch=1 c=7 v=102
10968 Par ch=1 c=7 v=100
10972 Par ch=1 c=7 v=99
10982 Par ch=1 c=7 v=98
10984 Par ch=1 c=7 v=97
10996 Par ch=1 c=7 v=95
11004 Par ch=1 c=7 v=93
11008 Par ch=1 c=7 v=92
11016 Par ch=1 c=7 v=90
11018 Par ch=1 c=7 v=89
11024 Par ch=1 c=7 v=87
11028 Par ch=1 c=7 v=86
11036 Par ch=1 c=7 v=83
11040 Par ch=1 c=7 v=82
11046 Par ch=1 c=7 v=80
11048 Par ch=1 c=7 v=79
11056 Par ch=1 c=7 v=77
11058 Par ch=1 c=7 v=75
11062 Par ch=1 c=7 v=74
11066 Par ch=1 c=7 v=73
11068 Par ch=1 c=7 v=71
11072 Par ch=1 c=7 v=70
11076 Par ch=1 c=7 v=69
11080 Par ch=1 c=7 v=67
11082 Par ch=1 c=7 v=66
11086 Par ch=1 c=7 v=64
11088 Par ch=1 c=7 v=63
11092 Par ch=1 c=7 v=61
11096 Par ch=1 c=7 v=60
11100 Par ch=1 c=7 v=58
11102 Par ch=1 c=7 v=56
11106 Par ch=1 c=7 v=55
11108 Par ch=1 c=7 v=53
11112 Par ch=1 c=7 v=50
11116 Par ch=1 c=7 v=48
11120 Par ch=1 c=7 v=46
11124 Par ch=1 c=7 v=43
11126 Par ch=1 c=7 v=41
11128 Par ch=1 c=7 v=38
11132 Par ch=1 c=7 v=36
11136 Par ch=1 c=7 v=34
11140 Par ch=1 c=7 v=31
11144 Par ch=1 c=7 v=29
11146 Par ch=1 c=7 v=26
11150 Par ch=1 c=7 v=24
11152 Par ch=1 c=7 v=21
11156 Par ch=1 c=7 v=19
11160 Par ch=1 c=7 v=16
11164 Par ch=1 c=7 v=14
11166 Par ch=1 c=7 v=12
11170 Par ch=1 c=7 v=10
11176 Par ch=1 c=7 v=9
11190 Par ch=1 c=7 v=14
11192 Par ch=1 c=7 v=16
11196 Par ch=1 c=7 v=18
11198 Off ch=1 n=62 v=0
11198 On ch=1 n=63 v=74
11200 Par ch=1 c=7 v=21
11204 Par ch=1 c=7 v=23
11208 Par ch=1 c=7 v=26
11210 Par ch=1 c=7 v=28
11214 Par ch=1 c=7 v=31
11216 Par ch=1 c=7 v=33
11220 Par ch=1 c=7 v=36
11224 Par ch=1 c=7 v=38
11228 Par ch=1 c=7 v=40
11230 Par ch=1 c=7 v=42
11234 Par ch=1 c=7 v=44
11236 Par ch=1 c=7 v=46
11240 Par ch=1 c=7 v=48
11244 Par ch=1 c=7 v=49
11248 Par ch=1 c=7 v=51
11252 Par ch=1 c=7 v=53
11254 Par ch=1 c=7 v=54
11256 Par ch=1 c=7 v=56
11260 Par ch=1 c=7 v=57
11264 Par ch=1 c=7 v=59
11268 Par ch=1 c=7 v=60
11270 Par ch=1 c=7 v=62
11274 Par ch=1 c=7 v=63
11278 Par ch=1 c=7 v=64
11280 Par ch=1 c=7 v=65
11288 Par ch=1 c=7 v=68
11292 Par ch=1 c=7 v=69
11294 Par ch=1 c=7 v=71
11298 Par ch=1 c=7 v=72
11304 Par ch=1 c=7 v=74
11308 Par ch=1 c=7 v=76
11314 Par ch=1 c=7 v=78
11318 Par ch=1 c=7 v=79
11320 Par ch=1 c=7 v=81
11324 Par ch=1 c=7 v=82
11328 Par ch=1 c=7 v=83
11332 Par ch=1 c=7 v=85
11336 Par ch=1 c=7 v=86
11338 Par ch=1 c=7 v=88
11342 Par ch=1 c=7 v=89
11344 Par ch=1 c=7 v=90
11348 Par ch=1 c=7 v=92
11352 Par ch=1 c=7 v=93
11358 Par ch=1 c=7 v=95
11362 Par ch=1 c=7 v=97
11368 Par ch=1 c=7 v=99
11372 Par ch=1 c=7 v=100
11378 Par ch=1 c=7 v=102
11382 Par ch=1 c=7 v=103
11388 Par ch=1 c=7 v=105
11392 Par ch=1 c=7 v=106
11398 Par ch=1 c=7 v=109
11402 Par ch=1 c=7 v=110
11408 Par ch=1 c=7 v=112
11412 Par ch=1 c=7 v=113
11420 Par ch=1 c=7 v=115
11422 Par ch=1 c=7 v=116
11428 Par ch=1 c=7 v=117
11432 Par ch=1 c=7 v=118
11440 Par ch=1 c=7 v=120
11442 Par ch=1 c=7 v=121
11448 Par ch=1 c=7 v=122
11452 Par ch=1 c=7 v=123
11460 Par ch=1 c=7 v=124
11462 Par ch=1 c=7 v=125
11470 Par ch=1 c=7 v=126
11638 Par ch=1 c=7 v=124
11640 Par ch=1 c=7 v=122
11644 Par ch=1 c=7 v=120
11648 Par ch=1 c=7 v=118
11652 Par ch=1 c=7 v=116
11654 Par ch=1 c=7 v=114
11658 Par ch=1 c=7 v=112
11660 Par ch=1 c=7 v=111
11664 Par ch=1 c=7 v=109
11668 Par ch=1 c=7 v=108
11674 Par ch=1 c=7 v=106
11678 Par ch=1 c=7 v=104
11684 Par ch=1 c=7 v=103
11688 Par ch=1 c=7 v=102
11694 Par ch=1 c=7 v=100
11698 Par ch=1 c=7 v=99
11704 Par ch=1 c=7 v=98
11708 Par ch=1 c=7 v=97
11716 Par ch=1 c=7 v=95
11724 Par ch=1 c=7 v=93
11728 Par ch=1 c=7 v=92
11736 Par ch=1 c=7 v=90
11744 Par ch=1 c=7 v=88
11748 Par ch=1 c=7 v=87
11756 Par ch=1 c=7 v=85
11758 Par ch=1 c=7 v=84
11766 Par ch=1 c=7 v=83
11768 Par ch=1 c=7 v=82
11776 Par ch=1 c=7 v=80
11778 Par ch=1 c=7 v=79
11786 Par ch=1 c=7 v=77
11788 Par ch=1 c=7 v=76
11796 Par ch=1 c=7 v=74
11800 Par ch=1 c=7 v=73
11806 Par ch=1 c=7 v=71
11816 Par ch=1 c=7 v=69
11820 Par ch=1 c=7 v=68
11826 Par ch=1 c=7 v=66
11828 Par ch=1 c=7 v=64
11836 Par ch=1 c=7 v=62
11840 Par ch=1 c=7 v=61
11846 Par ch=1 c=7 v=59
11850 Par ch=1 c=7 v=57
11856 Par ch=1 c=7 v=55
11860 Par ch=1 c=7 v=54
11866 Par ch=1 c=7 v=52
11870 Par ch=1 c=7 v=51
11876 Par ch=1 c=7 v=49
11880 Par ch=1 c=7 v=48
11886 Par ch=1 c=7 v=46
11890 Par ch=1 c=7 v=44
11892 Par ch=1 c=7 v=43
11896 Par ch=1 c=7 v=41
11900 Par ch=1 c=7 v=40
11904 Par ch=1 c=7 v=38
11906 Par ch=1 c=7 v=37
11910 Par ch=1 c=7 v=35
11912 Par ch=1 c=7 v=34
11916 Par ch=1 c=7 v=32
11920 Par ch=1 c=7 v=30
11924 Par ch=1 c=7 v=29
11928 Par ch=1 c=7 v=27
11930 Par ch=1 c=7 v=25
11934 Par ch=1 c=7 v=22
11936 Par ch=1 c=7 v=20
11940 Par ch=1 c=7 v=18
11944 Off ch=1 n=63 v=0
11944 Par ch=1 c=7 v=15
11944 On ch=1 n=62 v=74
11948 Par ch=1 c=7 v=12
11950 Par ch=1 c=7 v=9
11954 Par ch=1 c=7 v=7
11956 Par ch=1 c=7 v=4
11960 Par ch=1 c=7 v=2
11964 Par ch=1 c=7 v=0
11978 Par ch=1 c=7 v=2
11980 Par ch=1 c=7 v=4
11984 Par ch=1 c=7 v=7
11988 Par ch=1 c=7 v=10
11992 Par ch=1 c=7 v=14
11994 Par ch=1 c=7 v=17
11998 Par ch=1 c=7 v=20
12000 Par ch=1 c=7 v=22
12004 Par ch=1 c=7 v=25
12008 Par ch=1 c=7 v=27
12012 Par ch=1 c=7 v=29
12014 Par ch=1 c=7 v=32
12018 Par ch=1 c=7 v=34
12020 Par ch=1 c=7 v=36
12024 Par ch=1 c=7 v=38
12028 Par ch=1 c=7 v=40
12032 Par ch=1 c=7 v=42
12036 Par ch=1 c=7 v=43
12038 Par ch=1 c=7 v=45
12040 Par ch=1 c=7 v=47
12044 Par ch=1 c=7 v=48
12048 Par ch=1 c=7 v=50
12052 Par ch=1 c=7 v=51
12056 Par ch=1 c=7 v=53
12058 Par ch=1 c=7 v=54
12062 Par ch=1 c=7 v=56
12064 Par ch=1 c=7 v=57
12068 Par ch=1 c=7 v=58
12072 Par ch=1 c=7 v=60
12074 Par ch=1 c=7 v=61
12078 Par ch=1 c=7 v=63
12082 Par ch=1 c=7 v=64
12084 Par ch=1 c=7 v=65
12088 Par ch=1 c=7 v=67
12092 Par ch=1 c=7 v=68
12096 Par ch=1 c=7 v=70
12098 Par ch=1 c=7 v=71
12102 Par ch=1 c=7 v=73
12104 Par ch=1 c=7 v=74
12108 Par ch=1 c=7 v=76
12112 Par ch=1 c=7 v=77
12116 Par ch=1 c=7 v=79
12118 Par ch=1 c=7 v=80
12122 Par ch=1 c=7 v=81
12126 Par ch=1 c=7 v=83
12128 Par ch=1 c=7 v=84
12136 Par ch=1 c=7 v=86
12140 Par ch=1 c=7 v=88
12146 Par ch=1 c=7 v=90
12148 Par ch=1 c=7 v=91
12156 Par ch=1 c=7 v=93
12160 Par ch=1 c=7 v=94
12166 Par ch=1 c=7 v=97
12168 Par ch=1 c=7 v=98
12176 Par ch=1 c=7 v=100
12180 Par ch=1 c=7 v=101
12186 Par ch=1 c=7 v=103
12190 Par ch=1 c=7 v=105
12196 Par ch=1 c=7 v=107
12200 Par ch=1 c=7 v=108
12206 Par ch=1 c=7 v=110
12216 Par ch=1 c=7 v=112
12220 Par ch=1 c=7 v=113
12226 Par ch=1 c=7 v=115
12236 Par ch=1 c=7 v=117
12240 Par ch=1 c=7 v=118
12246 Par ch=1 c=7 v=120
12250 Par ch=1 c=7 v=121
12256 Par ch=1 c=7 v=123
12260 Par ch=1 c=7 v=124
12266 Par ch=1 c=7 v=126
12416 Par ch=1 c=7 v=124
12418 Par ch=1 c=7 v=122
12424 Par ch=1 c=7 v=120
12428 Par ch=1 c=7 v=119
12436 Par ch=1 c=7 v=117
12438 Par ch=1 c=7 v=116
12444 Par ch=1 c=7 v=113
12448 Par ch=1 c=7 v=112
12456 Par ch=1 c=7 v=111
12458 Par ch=1 c=7 v=110
12464 Par ch=1 c=7 v=108
12468 Par ch=1 c=7 v=107
12476 Par ch=1 c=7 v=106
12478 Par ch=1 c=7 v=105
12486 Par ch=1 c=7 v=104
12488 Par ch=1 c=7 v=103
12496 Par ch=1 c=7 v=102
12500 Par ch=1 c=7 v=101
12504 Par ch=1 c=7 v=100
12508 Par ch=1 c=7 v=99
12516 Par ch=1 c=7 v=97
12520 Par ch=1 c=7 v=96
12526 Par ch=1 c=7 v=95
12528 Par ch=1 c=7 v=94
12536 Par ch=1 c=7 v=93
12540 Par ch=1 c=7 v=92
12546 Par ch=1 c=7 v=90
12550 Par ch=1 c=7 v=89
12556 Par ch=1 c=7 v=88
12560 Par ch=1 c=7 v=87
12566 Par ch=1 c=7 v=85
12570 Par ch=1 c=7 v=84
12576 Par ch=1 c=7 v=82
12580 Par ch=1 c=7 v=81
12586 Par ch=1 c=7 v=78
12590 Par ch=1 c=7 v=77
12592 Par ch=1 c=7 v=76
12596 Par ch=1 c=7 v=74
12600 Par ch=1 c=7 v=73
12604 Par ch=1 c=7 v=72
12608 Par ch=1 c=7 v=70
12614 Par ch=1 c=7 v=68
12616 Par ch=1 c=7 v=67
12620 Par ch=1 c=7 v=65
12624 Par ch=1 c=7 v=64
12628 Par ch=1 c=7 v=63
12630 Par ch=1 c=7 v=61
12634 Par ch=1 c=7 v=60
12636 Par ch=1 c=7 v=58
12640 Par ch=1 c=7 v=57
12644 Par ch=1 c=7 v=55
12648 Par ch=1 c=7 v=54
12652 Par ch=1 c=7 v=52
12654 Par ch=1 c=7 v=50
12658 Par ch=1 c=7 v=49
12660 Par ch=1 c=7 v=47
12664 Par ch=1 c=7 v=45
12668 Par ch=1 c=7 v=43
12670 Par ch=1 c=7 v=41
12674 Par ch=1 c=7 v=39
12678 Par ch=1 c=7 v=37
12680 Par ch=1 c=7 v=35
12684 Par ch=1 c=7 v=33
12688 Par ch=1 c=7 v=30
12692 Off ch=1 n=62 v=0
12692 Par ch=1 c=7 v=28
12692 On ch=1 n=63 v=74
12694 Par ch=1 c=7 v=25
12698 Par ch=1 c=7 v=23
12700 Par ch=1 c=7 v=21
12704 Par ch=1 c=7 v=19
12712 Par ch=1 c=7 v=17
12724 Par ch=1 c=7 v=19
12728 Par ch=1 c=7 v=20
12732 Par ch=1 c=7 v=22
12736 Par ch=1 c=7 v=24
12738 Par ch=1 c=7 v=27
12742 Par ch=1 c=7 v=29
12744 Par ch=1 c=7 v=32
12748 Par ch=1 c=7 v=34
12752 Par ch=1 c=7 v=37
12756 Par ch=1 c=7 v=40
12758 Par ch=1 c=7 v=43
12762 Par ch=1 c=7 v=45
12764 Par ch=1 c=7 v=48
12768 Par ch=1 c=7 v=50
12772 Par ch=1 c=7 v=52
12776 Par ch=1 c=7 v=54
12778 Par ch=1 c=7 v=56
12782 Par ch=1 c=7 v=57
12784 Par ch=1 c=7 v=59
12788 Par ch=1 c=7 v=60
12792 Par ch=1 c=7 v=62
12796 Par ch=1 c=7 v=63
12798 Par ch=1 c=7 v=64
12802 Par ch=1 c=7 v=66
12804 Par ch=1 c=7 v=67
12808 Par ch=1 c=7 v=68
12812 Par ch=1 c=7 v=70
12816 Par ch=1 c=7 v=71
12820 Par ch=1 c=7 v=73
12822 Par ch=1 c=7 v=74
12826 Par ch=1 c=7 v=76
12828 Par ch=1 c=7 v=77
12832 Par ch=1 c=7 v=79
12836 Par ch=1 c=7 v=80
12840 Par ch=1 c=7 v=81
12844 Par ch=1 c=7 v=83
12846 Par ch=1 c=7 v=84
12848 Par ch=1 c=7 v=85
12852 Par ch=1 c=7 v=87
12856 Par ch=1 c=7 v=88
12860 Par ch=1 c=7 v=89
12862 Par ch=1 c=7 v=91
12866 Par ch=1 c=7 v=92
12870 Par ch=1 c=7 v=94
12872 Par ch=1 c=7 v=95
12876 Par ch=1 c=7 v=97
12880 Par ch=1 c=7 v=98
12884 Par ch=1 c=7 v=100
12886 Par ch=1 c=7 v=101
12890 Par ch=1 c=7 v=102
12896 Par ch=1 c=7 v=104
12900 Par ch=1 c=7 v=105
12906 Par ch=1 c=7 v=107
12910 Par ch=1 c=7 v=108
12916 Par ch=1 c=7 v=110
12920 Par ch=1 c=7 v=111
12926 Par ch=1 c=7 v=113
12930 Par ch=1 c=7 v=114
12936 Par ch=1 c=7 v=116
12940 Par ch=1 c=7 v=117
12948 Par ch=1 c=7 v=119
12950 Par ch=1 c=7 v=120
12956 Par ch=1 c=7 v=122
12960 Par ch=1 c=7 v=123
12966 Par ch=1 c=7 v=125
12970 Par ch=1 c=7 v=126
13132 Par ch=1 c=7 v=124
13136 Par ch=1 c=7 v=122
13140 Par ch=1 c=7 v=121
13142 Par ch=1 c=7 v=119
13144 Par ch=1 c=7 v=117
13148 Par ch=1 c=7 v=116
13152 Par ch=1 c=7 v=114
13156 Par ch=1 c=7 v=113
13158 Par ch=1 c=7 v=111
13162 Par ch=1 c=7 v=110
13168 Par ch=1 c=7 v=108
13172 Par ch=1 c=7 v=107
13180 Par ch=1 c=7 v=105
13182 Par ch=1 c=7 v=104
13188 Par ch=1 c=7 v=102
13200 Par ch=1 c=7 v=100
13202 Par ch=1 c=7 v=99
13208 Par ch=1 c=7 v=97
13212 Par ch=1 c=7 v=96
13220 Par ch=1 c=7 v=95
13222 Par ch=1 c=7 v=94
13228 Par ch=1 c=7 v=92
13232 Par ch=1 c=7 v=91
13240 Par ch=1 c=7 v=90
13244 Par ch=1 c=7 v=89
13250 Par ch=1 c=7 v=87
13252 Par ch=1 c=7 v=86
13260 Par ch=1 c=7 v=85
13264 Par ch=1 c=7 v=84
13270 Par ch=1 c=7 v=82
13280 Par ch=1 c=7 v=80
13284 Par ch=1 c=7 v=79
13290 Par ch=1 c=7 v=78
13292 Par ch=1 c=7 v=77
13300 Par ch=1 c=7 v=74
13304 Par ch=1 c=7 v=73
13308 Par ch=1 c=7 v=72
13310 Par ch=1 c=7 v=70
13312 Par ch=1 c=7 v=69
13316 Par ch=1 c=7 v=67
13320 Par ch=1 c=7 v=66
13324 Par ch=1 c=7 v=64
13328 Par ch=1 c=7 v=63
13330 Par ch=1 c=7 v=61
13334 Par ch=1 c=7 v=60
13336 Par ch=1 c=7 v=58
13340 Par ch=1 c=7 v=57
13344 Par ch=1 c=7 v=56
13348 Par ch=1 c=7 v=54
13352 Par ch=1 c=7 v=53
13354 Par ch=1 c=7 v=51
13356 Par ch=1 c=7 v=50
13360 Par ch=1 c=7 v=49
13364 Par ch=1 c=7 v=47
13368 Par ch=1 c=7 v=45
13370 Par ch=1 c=7 v=44
13374 Par ch=1 c=7 v=42
13378 Par ch=1 c=7 v=41
13380 Par ch=1 c=7 v=39
13384 Par ch=1 c=7 v=38
13388 Par ch=1 c=7 v=36
13392 Par ch=1 c=7 v=35
13394 Par ch=1 c=7 v=34
13398 Par ch=1 c=7 v=32
13400 Par ch=1 c=7 v=31
13408 Par ch=1 c=7 v=29
13412 Par ch=1 c=7 v=27
13414 Par ch=1 c=7 v=26
13418 Par ch=1 c=7 v=25
13420 Par ch=1 c=7 v=23
13424 Par ch=1 c=7 v=22
13428 Par ch=1 c=7 v=20
13432 Par ch=1 c=7 v=18
13436 Par ch=1 c=7 v=16
13438 Off ch=1 n=63 v=0
13438 Par ch=1 c=7 v=13
13438 On ch=1 n=62 v=74
13442 Par ch=1 c=7 v=11
13444 Par ch=1 c=7 v=9
13448 Par ch=1 c=7 v=6
13452 Par ch=1 c=7 v=4
13456 Par ch=1 c=7 v=3
13462 Par ch=1 c=7 v=1
13472 Par ch=1 c=7 v=6
13476 Par ch=1 c=7 v=9
13478 Par ch=1 c=7 v=13
13482 Par ch=1 c=7 v=16
13484 Par ch=1 c=7 v=21
13488 Par ch=1 c=7 v=25
13492 Par ch=1 c=7 v=29
13496 Par ch=1 c=7 v=32
13498 Par ch=1 c=7 v=36
13502 Par ch=1 c=7 v=39
13504 Par ch=1 c=7 v=42
13508 Par ch=1 c=7 v=45
13512 Par ch=1 c=7 v=47
13516 Par ch=1 c=7 v=50
13520 Par ch=1 c=7 v=52
13522 Par ch=1 c=7 v=54
13524 Par ch=1 c=7 v=56
13528 Par ch=1 c=7 v=58
13532 Par ch=1 c=7 v=60
13536 Par ch=1 c=7 v=61
13540 Par ch=1 c=7 v=63
13542 Par ch=1 c=7 v=64
13546 Par ch=1 c=7 v=66
13548 Par ch=1 c=7 v=67
13552 Par ch=1 c=7 v=69
13556 Par ch=1 c=7 v=70
13560 Par ch=1 c=7 v=71
13562 Par ch=1 c=7 v=73
13566 Par ch=1 c=7 v=75
13570 Par ch=1 c=7 v=76
13572 Par ch=1 c=7 v=78
13576 Par ch=1 c=7 v=79
13580 Par ch=1 c=7 v=81
13582 Par ch=1 c=7 v=82
13586 Par ch=1 c=7 v=84
13590 Par ch=1 c=7 v=85
13592 Par ch=1 c=7 v=87
13596 Par ch=1 c=7 v=88
13600 Par ch=1 c=7 v=90
13604 Par ch=1 c=7 v=91
13606 Par ch=1 c=7 v=93
13610 Par ch=1 c=7 v=95
13612 Par ch=1 c=7 v=96
13616 Par ch=1 c=7 v=98
13620 Par ch=1 c=7 v=100
13624 Par ch=1 c=7 v=101
13626 Par ch=1 c=7 v=103
13630 Par ch=1 c=7 v=104
13632 Par ch=1 c=7 v=106
13636 Par ch=1 c=7 v=107
13644 Par ch=1 c=7 v=109
13648 Par ch=1 c=7 v=110
13652 Par ch=1 c=7 v=112
13656 Par ch=1 c=7 v=113
13664 Par ch=1 c=7 v=115
13666 Par ch=1 c=7 v=116
13674 Par ch=1 c=7 v=118
13676 Par ch=1 c=7 v=120
13680 Par ch=1 c=7 v=121
13684 Par ch=1 c=7 v=122
13688 Par ch=1 c=7 v=124
13690 Par ch=1 c=7 v=125
13694 Par ch=1 c=7 v=126
13862 Par ch=1 c=7 v=125
13866 Par ch=1 c=7 v=123
13872 Par ch=1 c=7 v=121
13876 Par ch=1 c=7 v=120
13882 Par ch=1 c=7 v=117
13886 Par ch=1 c=7 v=116
13892 Par ch=1 c=7 v=114
13896 Par ch=1 c=7 v=113
13902 Par ch=1 c=7 v=111
13912 Par ch=1 c=7 v=109
13916 Par ch=1 c=7 v=108
13922 Par ch=1 c=7 v=107
13926 Par ch=1 c=7 v=106
13932 Par ch=1 c=7 v=104
13936 Par ch=1 c=7 v=103
13944 Par ch=1 c=7 v=100
13946 Par ch=1 c=7 v=99
13952 Par ch=1 c=7 v=97
13956 Par ch=1 c=7 v=96
13964 Par ch=1 c=7 v=94
13966 Par ch=1 c=7 v=93
13972 Par ch=1 c=7 v=91
13976 Par ch=1 c=7 v=90
13984 Par ch=1 c=7 v=88
13986 Par ch=1 c=7 v=87
13992 Par ch=1 c=7 v=85
13996 Par ch=1 c=7 v=84
14004 Par ch=1 c=7 v=82
14006 Par ch=1 c=7 v=81
14012 Par ch=1 c=7 v=79
14016 Par ch=1 c=7 v=78
14024 Par ch=1 c=7 v=76
14028 Par ch=1 c=7 v=75
14034 Par ch=1 c=7 v=73
14036 Par ch=1 c=7 v=72
14044 Par ch=1 c=7 v=69
14048 Par ch=1 c=7 v=68
14054 Par ch=1 c=7 v=66
14056 Par ch=1 c=7 v=65
14064 Par ch=1 c=7 v=62
14068 Par ch=1 c=7 v=61
14070 Par ch=1 c=7 v=60
14074 Par ch=1 c=7 v=59
14080 Par ch=1 c=7 v=56
14084 Par ch=1 c=7 v=55
14088 Par ch=1 c=7 v=54
14090 Par ch=1 c=7 v=52
14094 Par ch=1 c=7 v=51
14100 Par ch=1 c=7 v=48
14104 Par ch=1 c=7 v=47
14108 Par ch=1 c=7 v=46
14112 Par ch=1 c=7 v=44
14114 Par ch=1 c=7 v=43
14118 Par ch=1 c=7 v=42
14120 Par ch=1 c=7 v=40
14124 Par ch=1 c=7 v=39
14128 Par ch=1 c=7 v=38
14132 Par ch=1 c=7 v=36
14134 Par ch=1 c=7 v=35
14138 Par ch=1 c=7 v=33
14140 Par ch=1 c=7 v=32
14144 Par ch=1 c=7 v=30
14148 Par ch=1 c=7 v=29
14152 Par ch=1 c=7 v=27
14156 Par ch=1 c=7 v=25
14158 Par ch=1 c=7 v=24
14162 Par ch=1 c=7 v=22
14164 Par ch=1 c=7 v=20
14168 Par ch=1 c=7 v=18
14174 Par ch=1 c=7 v=17
14178 Par ch=1 c=7 v=16
14184 Off ch=1 n=62 v=0
14184 Par ch=1 c=7 v=18
14184 On ch=1 n=63 v=74
14188 Par ch=1 c=7 v=19
14192 Par ch=1 c=7 v=21
14196 Par ch=1 c=7 v=23
14198 Par ch=1 c=7 v=25
14202 Par ch=1 c=7 v=27
14204 Par ch=1 c=7 v=29
14208 Par ch=1 c=7 v=31
14212 Par ch=1 c=7 v=33
14216 Par ch=1 c=7 v=35
14218 Par ch=1 c=7 v=37
14222 Par ch=1 c=7 v=39
14224 Par ch=1 c=7 v=40
14228 Par ch=1 c=7 v=42
14232 Par ch=1 c=7 v=44
14236 Par ch=1 c=7 v=45
14240 Par ch=1 c=7 v=46
14242 Par ch=1 c=7 v=47
14248 Par ch=1 c=7 v=50
14252 Par ch=1 c=7 v=51
14260 Par ch=1 c=7 v=53
14262 Par ch=1 c=7 v=55
14268 Par ch=1 c=7 v=57
14272 Par ch=1 c=7 v=58
14280 Par ch=1 c=7 v=61
14282 Par ch=1 c=7 v=62
14290 Par ch=1 c=7 v=64
14292 Par ch=1 c=7 v=66
14296 Par ch=1 c=7 v=67
14300 Par ch=1 c=7 v=68
14302 Par ch=1 c=7 v=70
14306 Par ch=1 c=7 v=71
14308 Par ch=1 c=7 v=73
14312 Par ch=1 c=7 v=74
14316 Par ch=1 c=7 v=76
14320 Par ch=1 c=7 v=78
14324 Par ch=1 c=7 v=79
14326 Par ch=1 c=7 v=81
14330 Par ch=1 c=7 v=82
14332 Par ch=1 c=7 v=83
14336 Par ch=1 c=7 v=85
14340 Par ch=1 c=7 v=86
14346 Par ch=1 c=7 v=88
14350 Par ch=1 c=7 v=89
14356 Par ch=1 c=7 v=92
14366 Par ch=1 c=7 v=94
14370 Par ch=1 c=7 v=95
14376 Par ch=1 c=7 v=97
14380 Par ch=1 c=7 v=98
14388 Par ch=1 c=7 v=100
14390 Par ch=1 c=7 v=101
14396 Par ch=1 c=7 v=104
14400 Par ch=1 c=7 v=105
14408 Par ch=1 c=7 v=107
14410 Par ch=1 c=7 v=108
14416 Par ch=1 c=7 v=110
14420 Par ch=1 c=7 v=111
14428 Par ch=1 c=7 v=113
14430 Par ch=1 c=7 v=114
14436 Par ch=1 c=7 v=116
14440 Par ch=1 c=7 v=117
14448 Par ch=1 c=7 v=119
14452 Par ch=1 c=7 v=120
14458 Par ch=1 c=7 v=122
14460 Par ch=1 c=7 v=123
14468 Par ch=1 c=7 v=126
14612 Par ch=1 c=7 v=125
14616 Par ch=1 c=7 v=123
14620 Par ch=1 c=7 v=122
14622 Par ch=1 c=7 v=120
14626 Par ch=1 c=7 v=119
14628 Par ch=1 c=7 v=117
14632 Par ch=1 c=7 v=116
14636 Par ch=1 c=7 v=114
14640 Par ch=1 c=7 v=113
14646 Par ch=1 c=7 v=111
14648 Par ch=1 c=7 v=110
14656 Par ch=1 c=7 v=108
14660 Par ch=1 c=7 v=107
14666 Par ch=1 c=7 v=105
14670 Par ch=1 c=7 v=104
14676 Par ch=1 c=7 v=102
14680 Par ch=1 c=7 v=101
14686 Par ch=1 c=7 v=98
14690 Par ch=1 c=7 v=97
14696 Par ch=1 c=7 v=95
14700 Par ch=1 c=7 v=94
14706 Par ch=1 c=7 v=92
14710 Par ch=1 c=7 v=91
14716 Par ch=1 c=7 v=89
14720 Par ch=1 c=7 v=88
14728 Par ch=1 c=7 v=86
14730 Par ch=1 c=7 v=85
14736 Par ch=1 c=7 v=84
14740 Par ch=1 c=7 v=83
14748 Par ch=1 c=7 v=81
14750 Par ch=1 c=7 v=80
14756 Par ch=1 c=7 v=78
14760 Par ch=1 c=7 v=77
14768 Par ch=1 c=7 v=76
14770 Par ch=1 c=7 v=75
14776 Par ch=1 c=7 v=73
14788 Par ch=1 c=7 v=71
14790 Par ch=1 c=7 v=70
14798 Par ch=1 c=7 v=69
14800 Par ch=1 c=7 v=68
14808 Par ch=1 c=7 v=66
14818 Par ch=1 c=7 v=64
14820 Par ch=1 c=7 v=63
14828 Par ch=1 c=7 v=62
14832 Par ch=1 c=7 v=61
14838 Par ch=1 c=7 v=60
14840 Par ch=1 c=7 v=59
14848 Par ch=1 c=7 v=58
14852 Par ch=1 c=7 v=57
14858 Par ch=1 c=7 v=56
14860 Par ch=1 c=7 v=55
14868 Par ch=1 c=7 v=52
14872 Par ch=1 c=7 v=51
14874 Par ch=1 c=7 v=50
14882 Par ch=1 c=7 v=47
14884 Par ch=1 c=7 v=46
14888 Par ch=1 c=7 v=45
14896 Par ch=1 c=7 v=42
14898 Par ch=1 c=7 v=41
14902 Par ch=1 c=7 v=39
14904 Par ch=1 c=7 v=38
14908 Par ch=1 c=7 v=36
14912 Par ch=1 c=7 v=35
14916 Par ch=1 c=7 v=33
14918 Par ch=1 c=7 v=31
14922 Par ch=1 c=7 v=29
14924 Par ch=1 c=7 v=27
14928 Par ch=1 c=7 v=25
14932 Off ch=1 n=63 v=0
14932 On ch=1 n=62 v=74
14936 Par ch=1 c=7 v=11
14938 Par ch=1 c=7 v=9
14940 Par ch=1 c=7 v=6
14944 Par ch=1 c=7 v=4
14948 Par ch=1 c=7 v=3
14956 Par ch=1 c=7 v=1
14964 Par ch=1 c=7 v=6
14968 Par ch=1 c=7 v=9
14972 Par ch=1 c=7 v=13
14976 Par ch=1 c=7 v=16
14978 Par ch=1 c=7 v=21
14982 Par ch=1 c=7 v=25
14984 Par ch=1 c=7 v=29
14988 Par ch=1 c=7 v=32
14992 Par ch=1 c=7 v=36
14996 Par ch=1 c=7 v=39
14998 Par ch=1 c=7 v=42
15002 Par ch=1 c=7 v=45
15006 Par ch=1 c=7 v=47
15008 Par ch=1 c=7 v=50
15012 Par ch=1 c=7 v=52
15016 Par ch=1 c=7 v=54
15018 Par ch=1 c=7 v=56
15022 Par ch=1 c=7 v=58
15024 Par ch=1 c=7 v=60
15028 Par ch=1 c=7 v=61
15032 Par ch=1 c=7 v=63
15036 Par ch=1 c=7 v=64
15040 Par ch=1 c=7 v=66
15042 Par ch=1 c=7 v=67
15046 Par ch=1 c=7 v=69
15048 Par ch=1 c=7 v=70
15052 Par ch=1 c=7 v=71
15056 Par ch=1 c=7 v=73
15060 Par ch=1 c=7 v=75
15064 Par ch=1 c=7 v=76
15066 Par ch=1 c=7 v=78
15068 Par ch=1 c=7 v=79
15072 Par ch=1 c=7 v=81
15076 Par ch=1 c=7 v=82
15080 Par ch=1 c=7 v=84
15084 Par ch=1 c=7 v=85
15086 Par ch=1 c=7 v=87
15090 Par ch=1 c=7 v=88
15092 Par ch=1 c=7 v=90
15096 Par ch=1 c=7 v=91
15100 Par ch=1 c=7 v=93
15104 Par ch=1 c=7 v=95
15106 Par ch=1 c=7 v=96
15110 Par ch=1 c=7 v=98
15112 Par ch=1 c=7 v=100
15116 Par ch=1 c=7 v=101
15120 Par ch=1 c=7 v=103
15124 Par ch=1 c=7 v=104
15126 Par ch=1 c=7 v=106
15130 Par ch=1 c=7 v=107
15136 Par ch=1 c=7 v=109
15140 Par ch=1 c=7 v=110
15146 Par ch=1 c=7 v=112
15150 Par ch=1 c=7 v=113
15156 Par ch=1 c=7 v=115
15160 Par ch=1 c=7 v=116
15168 Par ch=1 c=7 v=118
15170 Par ch=1 c=7 v=120
15174 Par ch=1 c=7 v=121
15176 Par ch=1 c=7 v=122
15180 Par ch=1 c=7 v=124
15184 Par ch=1 c=7 v=125
15188 Par ch=1 c=7 v=126
15356 Par ch=1 c=7 v=125
15360 Par ch=1 c=7 v=123
15364 Par ch=1 c=7 v=121
15368 Par ch=1 c=7 v=120
15376 Par ch=1 c=7 v=117
15380 Par ch=1 c=7 v=116
15386 Par ch=1 c=7 v=114
15388 Par ch=1 c=7 v=113
15396 Par ch=1 c=7 v=111
15406 Par ch=1 c=7 v=109
15408 Par ch=1 c=7 v=108
15416 Par ch=1 c=7 v=107
15420 Par ch=1 c=7 v=106
15426 Par ch=1 c=7 v=104
15428 Par ch=1 c=7 v=103
15436 Par ch=1 c=7 v=100
15440 Par ch=1 c=7 v=99
15446 Par ch=1 c=7 v=97
15448 Par ch=1 c=7 v=96
15456 Par ch=1 c=7 v=94
15460 Par ch=1 c=7 v=93
15466 Par ch=1 c=7 v=91
15470 Par ch=1 c=7 v=90
15476 Par ch=1 c=7 v=88
15480 Par ch=1 c=7 v=87
15486 Par ch=1 c=7 v=85
15490 Par ch=1 c=7 v=84
15496 Par ch=1 c=7 v=82
15500 Par ch=1 c=7 v=81
15506 Par ch=1 c=7 v=79
15510 Par ch=1 c=7 v=78
15516 Par ch=1 c=7 v=76
15520 Par ch=1 c=7 v=75
15528 Par ch=1 c=7 v=73
15530 Par ch=1 c=7 v=72
15536 Par ch=1 c=7 v=69
15540 Par ch=1 c=7 v=68
15548 Par ch=1 c=7 v=66
15550 Par ch=1 c=7 v=65
15556 Par ch=1 c=7 v=62
15560 Par ch=1 c=7 v=61
15564 Par ch=1 c=7 v=60
15568 Par ch=1 c=7 v=59
15574 Par ch=1 c=7 v=56
15576 Par ch=1 c=7 v=55
15580 Par ch=1 c=7 v=54
15584 Par ch=1 c=7 v=52
15588 Par ch=1 c=7 v=51
15594 Par ch=1 c=7 v=48
15598 Par ch=1 c=7 v=47
15600 Par ch=1 c=7 v=46
15604 Par ch=1 c=7 v=44
15608 Par ch=1 c=7 v=43
15612 Par ch=1 c=7 v=42
15614 Par ch=1 c=7 v=40
15618 Par ch=1 c=7 v=39
15620 Par ch=1 c=7 v=38
15624 Par ch=1 c=7 v=36
15628 Par ch=1 c=7 v=35
15632 Par ch=1 c=7 v=33
15634 Par ch=1 c=7 v=32
15638 Par ch=1 c=7 v=30
15640 Par ch=1 c=7 v=29
15644 Par ch=1 c=7 v=27
15648 Par ch=1 c=7 v=25
15652 Par ch=1 c=7 v=24
15656 Par ch=1 c=7 v=22
15658 Par ch=1 c=7 v=20
15662 Par ch=1 c=7 v=18
15668 Par ch=1 c=7 v=17
15672 Par ch=1 c=7 v=16
15678 Off ch=1 n=62 v=0
15678 Par ch=1 c=7 v=18
15678 On ch=1 n=63 v=74
15682 Par ch=1 c=7 v=19
15684 Par ch=1 c=7 v=21
15688 Par ch=1 c=7 v=23
15692 Par ch=1 c=7 v=25
15696 Par ch=1 c=7 v=27
15698 Par ch=1 c=7 v=29
15702 Par ch=1 c=7 v=31
15704 Par ch=1 c=7 v=33
15708 Par ch=1 c=7 v=35
15712 Par ch=1 c=7 v=37
15716 Par ch=1 c=7 v=39
15718 Par ch=1 c=7 v=40
15722 Par ch=1 c=7 v=42
15724 Par ch=1 c=7 v=44
15728 Par ch=1 c=7 v=45
15732 Par ch=1 c=7 v=46
15736 Par ch=1 c=7 v=47
15742 Par ch=1 c=7 v=50
15746 Par ch=1 c=7 v=51
15752 Par ch=1 c=7 v=53
15756 Par ch=1 c=7 v=55
15762 Par ch=1 c=7 v=57
15766 Par ch=1 c=7 v=58
15772 Par ch=1 c=7 v=61
15776 Par ch=1 c=7 v=62
15784 Par ch=1 c=7 v=64
15786 Par ch=1 c=7 v=66
15790 Par ch=1 c=7 v=67
15792 Par ch=1 c=7 v=68
15796 Par ch=1 c=7 v=70
15800 Par ch=1 c=7 v=71
15802 Par ch=1 c=7 v=73
15806 Par ch=1 c=7 v=74
15810 Par ch=1 c=7 v=76
15812 Par ch=1 c=7 v=78
15816 Par ch=1 c=7 v=79
15820 Par ch=1 c=7 v=81
15824 Par ch=1 c=7 v=82
15826 Par ch=1 c=7 v=83
15830 Par ch=1 c=7 v=85
15832 Par ch=1 c=7 v=86
15840 Par ch=1 c=7 v=88
15844 Par ch=1 c=7 v=89
15850 Par ch=1 c=7 v=92
15860 Par ch=1 c=7 v=94
15864 Par ch=1 c=7 v=95
15870 Par ch=1 c=7 v=97
15872 Par ch=1 c=7 v=98
15880 Par ch=1 c=7 v=100
15884 Par ch=1 c=7 v=101
15890 Par ch=1 c=7 v=104
15894 Par ch=1 c=7 v=105
15900 Par ch=1 c=7 v=107
15904 Par ch=1 c=7 v=108
15910 Par ch=1 c=7 v=110
15914 Par ch=1 c=7 v=111
15920 Par ch=1 c=7 v=113
15924 Par ch=1 c=7 v=114
15930 Par ch=1 c=7 v=116
15934 Par ch=1 c=7 v=117
15940 Par ch=1 c=7 v=119
15944 Par ch=1 c=7 v=120
15952 Par ch=1 c=7 v=122
15954 Par ch=1 c=7 v=123
15960 Par ch=1 c=7 v=126
16106 Par ch=1 c=7 v=125
16108 Par ch=1 c=7 v=123
16112 Par ch=1 c=7 v=122
16116 Par ch=1 c=7 v=120
16120 Par ch=1 c=7 v=119
16122 Par ch=1 c=7 v=117
16126 Par ch=1 c=7 v=116
16128 Par ch=1 c=7 v=114
16132 Par ch=1 c=7 v=113
16140 Par ch=1 c=7 v=111
16142 Par ch=1 c=7 v=110
16148 Par ch=1 c=7 v=108
16152 Par ch=1 c=7 v=107
16160 Par ch=1 c=7 v=105
16164 Par ch=1 c=7 v=104
16170 Par ch=1 c=7 v=102
16172 Par ch=1 c=7 v=101
16180 Par ch=1 c=7 v=98
16184 Par ch=1 c=7 v=97
16190 Par ch=1 c=7 v=95
16192 Par ch=1 c=7 v=94
16200 Par ch=1 c=7 v=92
16204 Par ch=1 c=7 v=91
16210 Par ch=1 c=7 v=89
16214 Par ch=1 c=7 v=88
16220 Par ch=1 c=7 v=86
16224 Par ch=1 c=7 v=85
16230 Par ch=1 c=7 v=84
16232 Par ch=1 c=7 v=83
16240 Par ch=1 c=7 v=81
16244 Par ch=1 c=7 v=80
16250 Par ch=1 c=7 v=78
16254 Par ch=1 c=7 v=77
16260 Par ch=1 c=7 v=76
16264 Par ch=1 c=7 v=75
16270 Par ch=1 c=7 v=73
16280 Par ch=1 c=7 v=71
16284 Par ch=1 c=7 v=70
16292 Par ch=1 c=7 v=69
16294 Par ch=1 c=7 v=68
16300 Par ch=1 c=7 v=66
16312 Par ch=1 c=7 v=64
16314 Par ch=1 c=7 v=63
16320 Par ch=1 c=7 v=62
16324 Par ch=1 c=7 v=61
16332 Par ch=1 c=7 v=60
16334 Par ch=1 c=7 v=59
16340 Par ch=1 c=7 v=58
16344 Par ch=1 c=7 v=57
16352 Par ch=1 c=7 v=56
16354 Par ch=1 c=7 v=55
16360 Par ch=1 c=7 v=52
16364 Par ch=1 c=7 v=51
16368 Par ch=1 c=7 v=50
16376 Par ch=1 c=7 v=47
16378 Par ch=1 c=7 v=46
16382 Par ch=1 c=7 v=45
16388 Par ch=1 c=7 v=42
16392 Par ch=1 c=7 v=41
16396 Par ch=1 c=7 v=39
16398 Par ch=1 c=7 v=38
16402 Par ch=1 c=7 v=36
16404 Par ch=1 c=7 v=35
16408 Par ch=1 c=7 v=33
16412 Par ch=1 c=7 v=31
16416 Par ch=1 c=7 v=29
16418 Par ch=1 c=7 v=27
16422 Par ch=1 c=7 v=25
16424 Off ch=1 n=63 v=0
16424 On ch=1 n=62 v=74
16426 Par ch=1 c=7 v=15
16430 Par ch=1 c=7 v=18
16432 Par ch=1 c=7 v=21
16436 Par ch=1 c=7 v=24
16440 Par ch=1 c=7 v=27
16444 Par ch=1 c=7 v=30
16448 Par ch=1 c=7 v=33
16450 Par ch=1 c=7 v=35
16454 Par ch=1 c=7 v=38
16456 Par ch=1 c=7 v=41
16460 Par ch=1 c=7 v=44
16464 Par ch=1 c=7 v=46
16466 Par ch=1 c=7 v=49
16470 Par ch=1 c=7 v=51
16474 Par ch=1 c=7 v=53
16476 Par ch=1 c=7 v=55
16480 Par ch=1 c=7 v=57
16484 Par ch=1 c=7 v=59
16488 Par ch=1 c=7 v=61
16490 Par ch=1 c=7 v=63
16494 Par ch=1 c=7 v=64
16496 Par ch=1 c=7 v=66
16500 Par ch=1 c=7 v=68
16504 Par ch=1 c=7 v=69
16508 Par ch=1 c=7 v=71
16510 Par ch=1 c=7 v=72
16514 Par ch=1 c=7 v=74
16516 Par ch=1 c=7 v=76
16520 Par ch=1 c=7 v=77
16524 Par ch=1 c=7 v=78
16528 Par ch=1 c=7 v=80
16532 Par ch=1 c=7 v=81
16538 Par ch=1 c=7 v=84
16540 Par ch=1 c=7 v=85
16548 Par ch=1 c=7 v=87
16552 Par ch=1 c=7 v=89
16554 Par ch=1 c=7 v=90
16558 Par ch=1 c=7 v=91
16560 Par ch=1 c=7 v=93
16564 Par ch=1 c=7 v=94
16568 Par ch=1 c=7 v=96
16572 Par ch=1 c=7 v=97
16574 Par ch=1 c=7 v=99
16578 Par ch=1 c=7 v=100
16582 Par ch=1 c=7 v=101
16588 Par ch=1 c=7 v=103
16592 Par ch=1 c=7 v=105
16598 Par ch=1 c=7 v=107
16600 Par ch=1 c=7 v=108
16608 Par ch=1 c=7 v=109
16612 Par ch=1 c=7 v=110
16618 Par ch=1 c=7 v=112
16622 Par ch=1 c=7 v=113
16628 Par ch=1 c=7 v=115
16632 Par ch=1 c=7 v=116
16638 Par ch=1 c=7 v=118
16642 Par ch=1 c=7 v=119
16648 Par ch=1 c=7 v=121
16652 Par ch=1 c=7 v=122
16658 Par ch=1 c=7 v=124
16662 Par ch=1 c=7 v=125
16668 Par ch=1 c=7 v=126
16860 Par ch=1 c=7 v=125
16864 Par ch=1 c=7 v=124
16868 Par ch=1 c=7 v=122
16870 Par ch=1 c=7 v=121
16874 Par ch=1 c=7 v=120
16880 Par ch=1 c=7 v=117
16884 Par ch=1 c=7 v=116
16892 Par ch=1 c=7 v=114
16894 Par ch=1 c=7 v=113
16900 Par ch=1 c=7 v=111
16904 Par ch=1 c=7 v=110
16912 Par ch=1 c=7 v=108
16914 Par ch=1 c=7 v=107
16920 Par ch=1 c=7 v=105
16924 Par ch=1 c=7 v=104
16932 Par ch=1 c=7 v=102
16940 Par ch=1 c=7 v=100
16944 Par ch=1 c=7 v=99
16956 Par ch=1 c=7 v=98
16958 Par ch=1 c=7 v=97
16968 Par ch=1 c=7 v=95
16978 Par ch=1 c=7 v=93
16982 Par ch=1 c=7 v=92
16988 Par ch=1 c=7 v=90
16992 Par ch=1 c=7 v=89
16998 Par ch=1 c=7 v=87
17002 Par ch=1 c=7 v=86
17008 Par ch=1 c=7 v=83
17012 Par ch=1 c=7 v=82
17020 Par ch=1 c=7 v=80
17022 Par ch=1 c=7 v=79
17028 Par ch=1 c=7 v=77
17032 Par ch=1 c=7 v=75
17036 Par ch=1 c=7 v=74
17040 Par ch=1 c=7 v=73
17042 Par ch=1 c=7 v=71
17046 Par ch=1 c=7 v=70
17048 Par ch=1 c=7 v=69
17052 Par ch=1 c=7 v=67
17056 Par ch=1 c=7 v=66
17060 Par ch=1 c=7 v=64
17062 Par ch=1 c=7 v=63
17066 Par ch=1 c=7 v=61
17068 Par ch=1 c=7 v=60
17072 Par ch=1 c=7 v=58
17076 Par ch=1 c=7 v=56
17080 Par ch=1 c=7 v=55
17082 Par ch=1 c=7 v=53
17086 Par ch=1 c=7 v=50
17090 Par ch=1 c=7 v=48
17092 Par ch=1 c=7 v=46
17096 Par ch=1 c=7 v=43
17100 Par ch=1 c=7 v=41
17102 Par ch=1 c=7 v=38
17106 Par ch=1 c=7 v=36
17110 Par ch=1 c=7 v=34
17112 Par ch=1 c=7 v=31
17116 Par ch=1 c=7 v=29
17120 Par ch=1 c=7 v=26
17124 Par ch=1 c=7 v=24
17126 Par ch=1 c=7 v=21
17130 Par ch=1 c=7 v=19
17132 Par ch=1 c=7 v=16
17136 Par ch=1 c=7 v=14
17140 Par ch=1 c=7 v=12
17144 Par ch=1 c=7 v=10
17150 Par ch=1 c=7 v=9
17164 Par ch=1 c=7 v=14
17166 Par ch=1 c=7 v=16
17170 Par ch=1 c=7 v=18
17172 Off ch=1 n=62 v=0
17172 On ch=1 n=63 v=74
17174 Par ch=1 c=7 v=21
17176 Par ch=1 c=7 v=23
17180 Par ch=1 c=7 v=26
17184 Par ch=1 c=7 v=28
17188 Par ch=1 c=7 v=31
17190 Par ch=1 c=7 v=33
17194 Par ch=1 c=7 v=36
17196 Par ch=1 c=7 v=38
17200 Par ch=1 c=7 v=40
17204 Par ch=1 c=7 v=42
17208 Par ch=1 c=7 v=44
17210 Par ch=1 c=7 v=46
17214 Par ch=1 c=7 v=48
17216 Par ch=1 c=7 v=49
17220 Par ch=1 c=7 v=51
17224 Par ch=1 c=7 v=53
17228 Par ch=1 c=7 v=54
17230 Par ch=1 c=7 v=56
17234 Par ch=1 c=7 v=57
17236 Par ch=1 c=7 v=59
17240 Par ch=1 c=7 v=60
17244 Par ch=1 c=7 v=62
17248 Par ch=1 c=7 v=63
17252 Par ch=1 c=7 v=64
17254 Par ch=1 c=7 v=65
17260 Par ch=1 c=7 v=68
17264 Par ch=1 c=7 v=69
17268 Par ch=1 c=7 v=71
17272 Par ch=1 c=7 v=72
17278 Par ch=1 c=7 v=74
17282 Par ch=1 c=7 v=76
17288 Par ch=1 c=7 v=78
17292 Par ch=1 c=7 v=79
17294 Par ch=1 c=7 v=81
17298 Par ch=1 c=7 v=82
17300 Par ch=1 c=7 v=83
17304 Par ch=1 c=7 v=85
17308 Par ch=1 c=7 v=86
17312 Par ch=1 c=7 v=88
17316 Par ch=1 c=7 v=89
17318 Par ch=1 c=7 v=90
17320 Par ch=1 c=7 v=92
17324 Par ch=1 c=7 v=93
17332 Par ch=1 c=7 v=95
17336 Par ch=1 c=7 v=97
17342 Par ch=1 c=7 v=99
17344 Par ch=1 c=7 v=100
17352 Par ch=1 c=7 v=102
17356 Par ch=1 c=7 v=103
17362 Par ch=1 c=7 v=105
17364 Par ch=1 c=7 v=106
17372 Par ch=1 c=7 v=109
17376 Par ch=1 c=7 v=110
17382 Par ch=1 c=7 v=112
17386 Par ch=1 c=7 v=113
17392 Par ch=1 c=7 v=115
17396 Par ch=1 c=7 v=116
17402 Par ch=1 c=7 v=117
17406 Par ch=1 c=7 v=118
17412 Par ch=1 c=7 v=120
17416 Par ch=1 c=7 v=121
17422 Par ch=1 c=7 v=122
17426 Par ch=1 c=7 v=123
17432 Par ch=1 c=7 v=124
17436 Par ch=1 c=7 v=125
17444 Par ch=1 c=7 v=126
17612 Par ch=1 c=7 v=124
17614 Par ch=1 c=7 v=122
17618 Par ch=1 c=7 v=120
17620 Par ch=1 c=7 v=118
17624 Par ch=1 c=7 v=116
17628 Par ch=1 c=7 v=114
17632 Par ch=1 c=7 v=112
17634 Par ch=1 c=7 v=111
17638 Par ch=1 c=7 v=109
17640 Par ch=1 c=7 v=108
17648 Par ch=1 c=7 v=106
17652 Par ch=1 c=7 v=104
17658 Par ch=1 c=7 v=103
17660 Par ch=1 c=7 v=102
17668 Par ch=1 c=7 v=100
17672 Par ch=1 c=7 v=99
17678 Par ch=1 c=7 v=98
17682 Par ch=1 c=7 v=97
17688 Par ch=1 c=7 v=95
17698 Par ch=1 c=7 v=93
17702 Par ch=1 c=7 v=92
17708 Par ch=1 c=7 v=90
17718 Par ch=1 c=7 v=88
17722 Par ch=1 c=7 v=87
17728 Par ch=1 c=7 v=85
17732 Par ch=1 c=7 v=84
17740 Par ch=1 c=7 v=83
17742 Par ch=1 c=7 v=82
17748 Par ch=1 c=7 v=80
17752 Par ch=1 c=7 v=79
17760 Par ch=1 c=7 v=77
17762 Par ch=1 c=7 v=76
17768 Par ch=1 c=7 v=74
17772 Par ch=1 c=7 v=73
17780 Par ch=1 c=7 v=71
17788 Par ch=1 c=7 v=69
17792 Par ch=1 c=7 v=68
17800 Par ch=1 c=7 v=66
17802 Par ch=1 c=7 v=64
17808 Par ch=1 c=7 v=62
17812 Par ch=1 c=7 v=61
17820 Par ch=1 c=7 v=59
17824 Par ch=1 c=7 v=57
17830 Par ch=1 c=7 v=55
17832 Par ch=1 c=7 v=54
17840 Par ch=1 c=7 v=52
17844 Par ch=1 c=7 v=51
17850 Par ch=1 c=7 v=49
17852 Par ch=1 c=7 v=48
17860 Par ch=1 c=7 v=46
17864 Par ch=1 c=7 v=44
17866 Par ch=1 c=7 v=43
17870 Par ch=1 c=7 v=41
17874 Par ch=1 c=7 v=40
17876 Par ch=1 c=7 v=38
17880 Par ch=1 c=7 v=37
17884 Par ch=1 c=7 v=35
17886 Par ch=1 c=7 v=34
17890 Par ch=1 c=7 v=32
17894 Par ch=1 c=7 v=30
17896 Par ch=1 c=7 v=29
17900 Par ch=1 c=7 v=27
17904 Par ch=1 c=7 v=25
17908 Par ch=1 c=7 v=22
17910 Par ch=1 c=7 v=20
17914 Par ch=1 c=7 v=18
17916 Par ch=1 c=7 v=15
17918 Off ch=1 n=63 v=0
17918 On ch=1 n=62 v=74
17920 Par ch=1 c=7 v=12
17924 Par ch=1 c=7 v=9
17928 Par ch=1 c=7 v=7
17930 Par ch=1 c=7 v=4
17934 Par ch=1 c=7 v=2
17936 Par ch=1 c=7 v=0
17952 Par ch=1 c=7 v=2
17954 Par ch=1 c=7 v=4
17956 Par ch=1 c=7 v=7
17960 Par ch=1 c=7 v=10
17964 Par ch=1 c=7 v=14
17968 Par ch=1 c=7 v=17
17972 Par ch=1 c=7 v=20
17974 Par ch=1 c=7 v=22
17978 Par ch=1 c=7 v=25
17980 Par ch=1 c=7 v=27
17984 Par ch=1 c=7 v=29
17988 Par ch=1 c=7 v=32
17992 Par ch=1 c=7 v=34
17994 Par ch=1 c=7 v=36
17998 Par ch=1 c=7 v=38
18000 Par ch=1 c=7 v=40
18004 Par ch=1 c=7 v=42
18008 Par ch=1 c=7 v=43
18012 Par ch=1 c=7 v=45
18014 Par ch=1 c=7 v=47
18018 Par ch=1 c=7 v=48
18020 Par ch=1 c=7 v=50
18024 Par ch=1 c=7 v=51
18028 Par ch=1 c=7 v=53
18032 Par ch=1 c=7 v=54
18036 Par ch=1 c=7 v=56
18038 Par ch=1 c=7 v=57
18042 Par ch=1 c=7 v=58
18044 Par ch=1 c=7 v=60
18048 Par ch=1 c=7 v=61
18052 Par ch=1 c=7 v=63
18056 Par ch=1 c=7 v=64
18058 Par ch=1 c=7 v=65
18062 Par ch=1 c=7 v=67
18064 Par ch=1 c=7 v=68
18068 Par ch=1 c=7 v=70
18072 Par ch=1 c=7 v=71
18076 Par ch=1 c=7 v=73
18078 Par ch=1 c=7 v=74
18082 Par ch=1 c=7 v=76
18086 Par ch=1 c=7 v=77
18088 Par ch=1 c=7 v=79
18092 Par ch=1 c=7 v=80
18096 Par ch=1 c=7 v=81
18100 Par ch=1 c=7 v=83
18102 Par ch=1 c=7 v=84
18108 Par ch=1 c=7 v=86
18112 Par ch=1 c=7 v=88
18120 Par ch=1 c=7 v=90
18122 Par ch=1 c=7 v=91
18128 Par ch=1 c=7 v=93
18132 Par ch=1 c=7 v=94
18140 Par ch=1 c=7 v=97
18142 Par ch=1 c=7 v=98
18148 Par ch=1 c=7 v=100
18152 Par ch=1 c=7 v=101
18160 Par ch=1 c=7 v=103
18164 Par ch=1 c=7 v=105
18170 Par ch=1 c=7 v=107
18172 Par ch=1 c=7 v=108
18180 Par ch=1 c=7 v=110
18190 Par ch=1 c=7 v=112
18192 Par ch=1 c=7 v=113
18200 Par ch=1 c=7 v=115
18210 Par ch=1 c=7 v=117
18212 Par ch=1 c=7 v=118
18220 Par ch=1 c=7 v=120
18224 Par ch=1 c=7 v=121
18230 Par ch=1 c=7 v=123
18232 Par ch=1 c=7 v=124
18240 Par ch=1 c=7 v=126
18388 Par ch=1 c=7 v=124
18392 Par ch=1 c=7 v=122
18398 Par ch=1 c=7 v=120
18402 Par ch=1 c=7 v=119
18408 Par ch=1 c=7 v=117
18412 Par ch=1 c=7 v=116
18418 Par ch=1 c=7 v=113
18422 Par ch=1 c=7 v=112
18428 Par ch=1 c=7 v=111
18432 Par ch=1 c=7 v=110
18438 Par ch=1 c=7 v=108
18442 Par ch=1 c=7 v=107
18448 Par ch=1 c=7 v=106
18452 Par ch=1 c=7 v=105
18460 Par ch=1 c=7 v=104
18462 Par ch=1 c=7 v=103
18468 Par ch=1 c=7 v=102
18472 Par ch=1 c=7 v=101
18478 Par ch=1 c=7 v=100
18482 Par ch=1 c=7 v=99
18488 Par ch=1 c=7 v=97
18492 Par ch=1 c=7 v=96
18500 Par ch=1 c=7 v=95
18502 Par ch=1 c=7 v=94
18508 Par ch=1 c=7 v=93
18512 Par ch=1 c=7 v=92
18520 Par ch=1 c=7 v=90
18524 Par ch=1 c=7 v=89
18530 Par ch=1 c=7 v=88
18532 Par ch=1 c=7 v=87
18540 Par ch=1 c=7 v=85
18544 Par ch=1 c=7 v=84
18550 Par ch=1 c=7 v=82
18552 Par ch=1 c=7 v=81
18560 Par ch=1 c=7 v=78
18564 Par ch=1 c=7 v=77
18566 Par ch=1 c=7 v=76
18570 Par ch=1 c=7 v=74
18574 Par ch=1 c=7 v=73
18576 Par ch=1 c=7 v=72
18580 Par ch=1 c=7 v=70
18588 Par ch=1 c=7 v=68
18590 Par ch=1 c=7 v=67
18594 Par ch=1 c=7 v=65
18596 Par ch=1 c=7 v=64
18600 Par ch=1 c=7 v=63
18604 Par ch=1 c=7 v=61
18608 Par ch=1 c=7 v=60
18610 Par ch=1 c=7 v=58
18614 Par ch=1 c=7 v=57
18616 Par ch=1 c=7 v=55
18620 Par ch=1 c=7 v=54
18624 Par ch=1 c=7 v=52
18628 Par ch=1 c=7 v=50
18632 Par ch=1 c=7 v=49
18634 Par ch=1 c=7 v=47
18636 Par ch=1 c=7 v=45
18640 Par ch=1 c=7 v=43
18644 Par ch=1 c=7 v=41
18648 Par ch=1 c=7 v=39
18652 Par ch=1 c=7 v=37
18654 Par ch=1 c=7 v=35
18658 Par ch=1 c=7 v=33
18660 Par ch=1 c=7 v=30
18664 Off ch=1 n=62 v=0
18664 Par ch=1 c=7 v=28
18664 On ch=1 n=63 v=74
18668 Par ch=1 c=7 v=25
18672 Par ch=1 c=7 v=23
18674 Par ch=1 c=7 v=21
18678 Par ch=1 c=7 v=19
18684 Par ch=1 c=7 v=17
18698 Par ch=1 c=7 v=19
18700 Par ch=1 c=7 v=20
18704 Par ch=1 c=7 v=22
18708 Par ch=1 c=7 v=24
18712 Par ch=1 c=7 v=27
18716 Par ch=1 c=7 v=29
18718 Par ch=1 c=7 v=32
18722 Par ch=1 c=7 v=34
18724 Par ch=1 c=7 v=37
18728 Par ch=1 c=7 v=40
18732 Par ch=1 c=7 v=43
18736 Par ch=1 c=7 v=45
18738 Par ch=1 c=7 v=48
18742 Par ch=1 c=7 v=50
18744 Par ch=1 c=7 v=52
18748 Par ch=1 c=7 v=54
18752 Par ch=1 c=7 v=56
18756 Par ch=1 c=7 v=57
18758 Par ch=1 c=7 v=59
18762 Par ch=1 c=7 v=60
18766 Par ch=1 c=7 v=62
18768 Par ch=1 c=7 v=63
18772 Par ch=1 c=7 v=64
18776 Par ch=1 c=7 v=66
18778 Par ch=1 c=7 v=67
18782 Par ch=1 c=7 v=68
18786 Par ch=1 c=7 v=70
18788 Par ch=1 c=7 v=71
18792 Par ch=1 c=7 v=73
18796 Par ch=1 c=7 v=74
18800 Par ch=1 c=7 v=76
18802 Par ch=1 c=7 v=77
18806 Par ch=1 c=7 v=79
18808 Par ch=1 c=7 v=80
18812 Par ch=1 c=7 v=81
18816 Par ch=1 c=7 v=83
18820 Par ch=1 c=7 v=84
18822 Par ch=1 c=7 v=85
18826 Par ch=1 c=7 v=87
18828 Par ch=1 c=7 v=88
18832 Par ch=1 c=7 v=89
18836 Par ch=1 c=7 v=91
18840 Par ch=1 c=7 v=92
18844 Par ch=1 c=7 v=94
18846 Par ch=1 c=7 v=95
18850 Par ch=1 c=7 v=97
18852 Par ch=1 c=7 v=98
18856 Par ch=1 c=7 v=100
18860 Par ch=1 c=7 v=101
18864 Par ch=1 c=7 v=102
18870 Par ch=1 c=7 v=104
18872 Par ch=1 c=7 v=105
18880 Par ch=1 c=7 v=107
18884 Par ch=1 c=7 v=108
18890 Par ch=1 c=7 v=110
18892 Par ch=1 c=7 v=111
18900 Par ch=1 c=7 v=113
18904 Par ch=1 c=7 v=114
18910 Par ch=1 c=7 v=116
18912 Par ch=1 c=7 v=117
18920 Par ch=1 c=7 v=119
18924 Par ch=1 c=7 v=120
18930 Par ch=1 c=7 v=122
18934 Par ch=1 c=7 v=123
18940 Par ch=1 c=7 v=125
18944 Par ch=1 c=7 v=126
19104 Par ch=1 c=7 v=124
19108 Par ch=1 c=7 v=122
19112 Par ch=1 c=7 v=121
19116 Par ch=1 c=7 v=119
19118 Par ch=1 c=7 v=117
19122 Par ch=1 c=7 v=116
19124 Par ch=1 c=7 v=114
19128 Par ch=1 c=7 v=113
19132 Par ch=1 c=7 v=111
19136 Par ch=1 c=7 v=110
19142 Par ch=1 c=7 v=108
19146 Par ch=1 c=7 v=107
19152 Par ch=1 c=7 v=105
19156 Par ch=1 c=7 v=104
19162 Par ch=1 c=7 v=102
19172 Par ch=1 c=7 v=100
19176 Par ch=1 c=7 v=99
19182 Par ch=1 c=7 v=97
19186 Par ch=1 c=7 v=96
19192 Par ch=1 c=7 v=95
19196 Par ch=1 c=7 v=94
19202 Par ch=1 c=7 v=92
19206 Par ch=1 c=7 v=91
19212 Par ch=1 c=7 v=90
19216 Par ch=1 c=7 v=89
19224 Par ch=1 c=7 v=87
19226 Par ch=1 c=7 v=86
19232 Par ch=1 c=7 v=85
19236 Par ch=1 c=7 v=84
19244 Par ch=1 c=7 v=82
19252 Par ch=1 c=7 v=80
19256 Par ch=1 c=7 v=79
19264 Par ch=1 c=7 v=78
19266 Par ch=1 c=7 v=77
19274 Par ch=1 c=7 v=74
19276 Par ch=1 c=7 v=73
19280 Par ch=1 c=7 v=72
19284 Par ch=1 c=7 v=70
19286 Par ch=1 c=7 v=69
19290 Par ch=1 c=7 v=67
19294 Par ch=1 c=7 v=66
19296 Par ch=1 c=7 v=64
19300 Par ch=1 c=7 v=63
19304 Par ch=1 c=7 v=61
19308 Par ch=1 c=7 v=60
19310 Par ch=1 c=7 v=58
19314 Par ch=1 c=7 v=57
19316 Par ch=1 c=7 v=56
19320 Par ch=1 c=7 v=54
19324 Par ch=1 c=7 v=53
19328 Par ch=1 c=7 v=51
19330 Par ch=1 c=7 v=50
19334 Par ch=1 c=7 v=49
19336 Par ch=1 c=7 v=47
19340 Par ch=1 c=7 v=45
19344 Par ch=1 c=7 v=44
19348 Par ch=1 c=7 v=42
19352 Par ch=1 c=7 v=41
19354 Par ch=1 c=7 v=39
19358 Par ch=1 c=7 v=38
19360 Par ch=1 c=7 v=36
19364 Par ch=1 c=7 v=35
19368 Par ch=1 c=7 v=34
19372 Par ch=1 c=7 v=32
19374 Par ch=1 c=7 v=31
19380 Par ch=1 c=7 v=29
19384 Par ch=1 c=7 v=27
19388 Par ch=1 c=7 v=26
19392 Par ch=1 c=7 v=25
19394 Par ch=1 c=7 v=23
19398 Par ch=1 c=7 v=22
19400 Par ch=1 c=7 v=20
19404 Par ch=1 c=7 v=18
19408 Par ch=1 c=7 v=16
19412 Off ch=1 n=63 v=0
19412 Par ch=1 c=7 v=13
19412 On ch=1 n=62 v=74
19416 Par ch=1 c=7 v=11
19418 Par ch=1 c=7 v=9
19420 Par ch=1 c=7 v=6
19424 Par ch=1 c=7 v=4
19428 Par ch=1 c=7 v=3
19436 Par ch=1 c=7 v=1
19444 Par ch=1 c=7 v=6
19448 Par ch=1 c=7 v=9
19452 Par ch=1 c=7 v=13
19456 Par ch=1 c=7 v=16
19458 Par ch=1 c=7 v=21
19462 Par ch=1 c=7 v=25
19464 Par ch=1 c=7 v=29
19468 Par ch=1 c=7 v=32
19472 Par ch=1 c=7 v=36
19476 Par ch=1 c=7 v=39
19478 Par ch=1 c=7 v=42
19482 Par ch=1 c=7 v=45
19486 Par ch=1 c=7 v=47
19488 Par ch=1 c=7 v=50
19492 Par ch=1 c=7 v=52
19496 Par ch=1 c=7 v=54
19498 Par ch=1 c=7 v=56
19502 Par ch=1 c=7 v=58
19504 Par ch=1 c=7 v=60
19508 Par ch=1 c=7 v=61
19512 Par ch=1 c=7 v=63
19516 Par ch=1 c=7 v=64
19520 Par ch=1 c=7 v=66
19522 Par ch=1 c=7 v=67
19526 Par ch=1 c=7 v=69
19528 Par ch=1 c=7 v=70
19532 Par ch=1 c=7 v=71
19536 Par ch=1 c=7 v=73
19540 Par ch=1 c=7 v=75
19544 Par ch=1 c=7 v=76
19546 Par ch=1 c=7 v=78
19548 Par ch=1 c=7 v=79
19552 Par ch=1 c=7 v=81
19556 Par ch=1 c=7 v=82
19560 Par ch=1 c=7 v=84
19564 Par ch=1 c=7 v=85
19566 Par ch=1 c=7 v=87
19570 Par ch=1 c=7 v=88
19572 Par ch=1 c=7 v=90
19576 Par ch=1 c=7 v=91
19580 Par ch=1 c=7 v=93
19584 Par ch=1 c=7 v=95
19586 Par ch=1 c=7 v=96
19590 Par ch=1 c=7 v=98
19592 Par ch=1 c=7 v=100
19596 Par ch=1 c=7 v=101
19600 Par ch=1 c=7 v=103
19604 Par ch=1 c=7 v=104
19606 Par ch=1 c=7 v=106
19610 Par ch=1 c=7 v=107
19616 Par ch=1 c=7 v=109
19620 Par ch=1 c=7 v=110
19626 Par ch=1 c=7 v=112
19630 Par ch=1 c=7 v=113
19636 Par ch=1 c=7 v=115
19640 Par ch=1 c=7 v=116
19648 Par ch=1 c=7 v=118
19650 Par ch=1 c=7 v=120
19654 Par ch=1 c=7 v=121
19656 Par ch=1 c=7 v=122
19660 Par ch=1 c=7 v=124
19664 Par ch=1 c=7 v=125
19668 Par ch=1 c=7 v=126
19836 Par ch=1 c=7 v=125
19840 Par ch=1 c=7 v=123
19844 Par ch=1 c=7 v=121
19848 Par ch=1 c=7 v=120
19856 Par ch=1 c=7 v=117
19860 Par ch=1 c=7 v=116
19866 Par ch=1 c=7 v=114
19868 Par ch=1 c=7 v=113
19876 Par ch=1 c=7 v=111
19886 Par ch=1 c=7 v=109
19888 Par ch=1 c=7 v=108
19896 Par ch=1 c=7 v=107
19900 Par ch=1 c=7 v=106
19906 Par ch=1 c=7 v=104
19908 Par ch=1 c=7 v=103
19916 Par ch=1 c=7 v=100
19920 Par ch=1 c=7 v=99
19926 Par ch=1 c=7 v=97
19928 Par ch=1 c=7 v=96
19936 Par ch=1 c=7 v=94
19940 Par ch=1 c=7 v=93
19946 Par ch=1 c=7 v=91
19950 Par ch=1 c=7 v=90
19956 Par ch=1 c=7 v=88
19960 Par ch=1 c=7 v=87
19966 Par ch=1 c=7 v=85
19970 Par ch=1 c=7 v=84
19976 Par ch=1 c=7 v=82
19980 Par ch=1 c=7 v=81
19986 Par ch=1 c=7 v=79
19990 Par ch=1 c=7 v=78
19996 Par ch=1 c=7 v=76
20000 Par ch=1 c=7 v=75
20008 Par ch=1 c=7 v=73
20010 Par ch=1 c=7 v=72
20016 Par ch=1 c=7 v=69
20020 Par ch=1 c=7 v=68
20028 Par ch=1 c=7 v=66
20030 Par ch=1 c=7 v=65
20036 Par ch=1 c=7 v=62
20040 Par ch=1 c=7 v=61
20044 Par ch=1 c=7 v=60
20048 Par ch=1 c=7 v=59
20054 Par ch=1 c=7 v=56
20056 Par ch=1 c=7 v=55
20060 Par ch=1 c=7 v=54
20064 Par ch=1 c=7 v=52
20068 Par ch=1 c=7 v=51
20074 Par ch=1 c=7 v=48
20078 Par ch=1 c=7 v=47
20080 Par ch=1 c=7 v=46
20084 Par ch=1 c=7 v=44
20088 Par ch=1 c=7 v=43
20092 Par ch=1 c=7 v=42
20094 Par ch=1 c=7 v=40
20098 Par ch=1 c=7 v=39
20100 Par ch=1 c=7 v=38
20104 Par ch=1 c=7 v=36
20108 Par ch=1 c=7 v=35
20112 Par ch=1 c=7 v=33
20114 Par ch=1 c=7 v=32
20118 Par ch=1 c=7 v=30
20120 Par ch=1 c=7 v=29
20124 Par ch=1 c=7 v=27
20128 Par ch=1 c=7 v=25
20132 Par ch=1 c=7 v=24
20136 Par ch=1 c=7 v=22
20138 Par ch=1 c=7 v=20
20142 Par ch=1 c=7 v=18
20148 Par ch=1 c=7 v=17
20152 Par ch=1 c=7 v=16
20158 Off ch=1 n=62 v=0
20158 Par ch=1 c=7 v=18
20158 On ch=1 n=63 v=74
20162 Par ch=1 c=7 v=19
20164 Par ch=1 c=7 v=21
20168 Par ch=1 c=7 v=23
20172 Par ch=1 c=7 v=25
20176 Par ch=1 c=7 v=27
20178 Par ch=1 c=7 v=29
20182 Par ch=1 c=7 v=31
20184 Par ch=1 c=7 v=33
20188 Par ch=1 c=7 v=35
20192 Par ch=1 c=7 v=37
20196 Par ch=1 c=7 v=39
20198 Par ch=1 c=7 v=40
20202 Par ch=1 c=7 v=42
20204 Par ch=1 c=7 v=44
20208 Par ch=1 c=7 v=45
20212 Par ch=1 c=7 v=46
20216 Par ch=1 c=7 v=47
20222 Par ch=1 c=7 v=50
20226 Par ch=1 c=7 v=51
20232 Par ch=1 c=7 v=53
20236 Par ch=1 c=7 v=55
20242 Par ch=1 c=7 v=57
20246 Par ch=1 c=7 v=58
20252 Par ch=1 c=7 v=61
20256 Par ch=1 c=7 v=62
20264 Par ch=1 c=7 v=64
20266 Par ch=1 c=7 v=66
20270 Par ch=1 c=7 v=67
20272 Par ch=1 c=7 v=68
20276 Par ch=1 c=7 v=70
20280 Par ch=1 c=7 v=71
20282 Par ch=1 c=7 v=73
20286 Par ch=1 c=7 v=74
20290 Par ch=1 c=7 v=76
20292 Par ch=1 c=7 v=78
20296 Par ch=1 c=7 v=79
20300 Par ch=1 c=7 v=81
20304 Par ch=1 c=7 v=82
20306 Par ch=1 c=7 v=83
20310 Par ch=1 c=7 v=85
20312 Par ch=1 c=7 v=86
20320 Par ch=1 c=7 v=88
20324 Par ch=1 c=7 v=89
20330 Par ch=1 c=7 v=92
20340 Par ch=1 c=7 v=94
20344 Par ch=1 c=7 v=95
20350 Par ch=1 c=7 v=97
20352 Par ch=1 c=7 v=98
20360 Par ch=1 c=7 v=100
20364 Par ch=1 c=7 v=101
20370 Par ch=1 c=7 v=104
20374 Par ch=1 c=7 v=105
20380 Par ch=1 c=7 v=107
20384 Par ch=1 c=7 v=108
20390 Par ch=1 c=7 v=110
20394 Par ch=1 c=7 v=111
20400 Par ch=1 c=7 v=113
20404 Par ch=1 c=7 v=114
20410 Par ch=1 c=7 v=116
20414 Par ch=1 c=7 v=117
20420 Par ch=1 c=7 v=119
20424 Par ch=1 c=7 v=120
20432 Par ch=1 c=7 v=122
20434 Par ch=1 c=7 v=123
20440 Par ch=1 c=7 v=126
20586 Par ch=1 c=7 v=125
20588 Par ch=1 c=7 v=123
20592 Par ch=1 c=7 v=122
20596 Par ch=1 c=7 v=120
20600 Par ch=1 c=7 v=119
20602 Par ch=1 c=7 v=117
20606 Par ch=1 c=7 v=116
20608 Par ch=1 c=7 v=114
20612 Par ch=1 c=7 v=113
20620 Par ch=1 c=7 v=111
20622 Par ch=1 c=7 v=110
20628 Par ch=1 c=7 v=108
20632 Par ch=1 c=7 v=107
20640 Par ch=1 c=7 v=105
20644 Par ch=1 c=7 v=104
20650 Par ch=1 c=7 v=102
20652 Par ch=1 c=7 v=101
20660 Par ch=1 c=7 v=98
20664 Par ch=1 c=7 v=97
20670 Par ch=1 c=7 v=95
20672 Par ch=1 c=7 v=94
20680 Par ch=1 c=7 v=92
20684 Par ch=1 c=7 v=91
20690 Par ch=1 c=7 v=89
20694 Par ch=1 c=7 v=88
20700 Par ch=1 c=7 v=86
20704 Par ch=1 c=7 v=85
20710 Par ch=1 c=7 v=84
20712 Par ch=1 c=7 v=83
20720 Par ch=1 c=7 v=81
20724 Par ch=1 c=7 v=80
20730 Par ch=1 c=7 v=78
20734 Par ch=1 c=7 v=77
20740 Par ch=1 c=7 v=76
20744 Par ch=1 c=7 v=75
20750 Par ch=1 c=7 v=73
20760 Par ch=1 c=7 v=71
20764 Par ch=1 c=7 v=70
20772 Par ch=1 c=7 v=69
20774 Par ch=1 c=7 v=68
20780 Par ch=1 c=7 v=66
20792 Par ch=1 c=7 v=64
20794 Par ch=1 c=7 v=63
20800 Par ch=1 c=7 v=62
20804 Par ch=1 c=7 v=61
20812 Par ch=1 c=7 v=60
20814 Par ch=1 c=7 v=59
20820 Par ch=1 c=7 v=58
20824 Par ch=1 c=7 v=57
20832 Par ch=1 c=7 v=56
20834 Par ch=1 c=7 v=55
20840 Par ch=1 c=7 v=52
20844 Par ch=1 c=7 v=51
20848 Par ch=1 c=7 v=50
20856 Par ch=1 c=7 v=47
20858 Par ch=1 c=7 v=46
20862 Par ch=1 c=7 v=45
20868 Par ch=1 c=7 v=42
20872 Par ch=1 c=7 v=41
20876 Par ch=1 c=7 v=39
20878 Par ch=1 c=7 v=38
20882 Par ch=1 c=7 v=36
20884 Par ch=1 c=7 v=35
20888 Par ch=1 c=7 v=33
20892 Par ch=1 c=7 v=31
20896 Par ch=1 c=7 v=29
20898 Par ch=1 c=7 v=27
20902 Par ch=1 c=7 v=25
20904 Off ch=1 n=63 v=0
20904 On ch=1 n=62 v=74
20908 Par ch=1 c=7 v=11
20912 Par ch=1 c=7 v=9
20914 Par ch=1 c=7 v=6
20918 Par ch=1 c=7 v=4
20922 Par ch=1 c=7 v=3
20928 Par ch=1 c=7 v=1
20938 Par ch=1 c=7 v=6
20942 Par ch=1 c=7 v=9
20944 Par ch=1 c=7 v=13
20948 Par ch=1 c=7 v=16
20952 Par ch=1 c=7 v=21
20956 Par ch=1 c=7 v=25
20958 Par ch=1 c=7 v=29
20962 Par ch=1 c=7 v=32
20964 Par ch=1 c=7 v=36
20968 Par ch=1 c=7 v=39
20972 Par ch=1 c=7 v=42
20976 Par ch=1 c=7 v=45
20980 Par ch=1 c=7 v=47
20982 Par ch=1 c=7 v=50
20986 Par ch=1 c=7 v=52
20988 Par ch=1 c=7 v=54
20992 Par ch=1 c=7 v=56
20996 Par ch=1 c=7 v=58
20998 Par ch=1 c=7 v=60
21002 Par ch=1 c=7 v=61
21006 Par ch=1 c=7 v=63
21008 Par ch=1 c=7 v=64
21012 Par ch=1 c=7 v=66
21016 Par ch=1 c=7 v=67
21020 Par ch=1 c=7 v=69
21022 Par ch=1 c=7 v=70
21026 Par ch=1 c=7 v=71
21028 Par ch=1 c=7 v=73
21032 Par ch=1 c=7 v=75
21036 Par ch=1 c=7 v=76
21040 Par ch=1 c=7 v=78
21042 Par ch=1 c=7 v=79
21046 Par ch=1 c=7 v=81
21048 Par ch=1 c=7 v=82
21052 Par ch=1 c=7 v=84
21056 Par ch=1 c=7 v=85
21060 Par ch=1 c=7 v=87
21064 Par ch=1 c=7 v=88
21066 Par ch=1 c=7 v=90
21070 Par ch=1 c=7 v=91
21072 Par ch=1 c=7 v=93
21076 Par ch=1 c=7 v=95
21080 Par ch=1 c=7 v=96
21084 Par ch=1 c=7 v=98
21086 Par ch=1 c=7 v=100
21090 Par ch=1 c=7 v=101
21092 Par ch=1 c=7 v=103
21096 Par ch=1 c=7 v=104
21100 Par ch=1 c=7 v=106
21104 Par ch=1 c=7 v=107
21110 Par ch=1 c=7 v=109
21114 Par ch=1 c=7 v=110
21120 Par ch=1 c=7 v=112
21124 Par ch=1 c=7 v=113
21130 Par ch=1 c=7 v=115
21132 Par ch=1 c=7 v=116
21140 Par ch=1 c=7 v=118
21144 Par ch=1 c=7 v=120
21148 Par ch=1 c=7 v=121
21150 Par ch=1 c=7 v=122
21154 Par ch=1 c=7 v=124
21156 Par ch=1 c=7 v=125
21160 Par ch=1 c=7 v=126
21328 Par ch=1 c=7 v=125
21332 Par ch=1 c=7 v=123
21338 Par ch=1 c=7 v=121
21342 Par ch=1 c=7 v=120
21348 Par ch=1 c=7 v=117
21352 Par ch=1 c=7 v=116
21360 Par ch=1 c=7 v=114
21362 Par ch=1 c=7 v=113
21368 Par ch=1 c=7 v=111
21380 Par ch=1 c=7 v=109
21382 Par ch=1 c=7 v=108
21388 Par ch=1 c=7 v=107
21392 Par ch=1 c=7 v=106
21400 Par ch=1 c=7 v=104
21402 Par ch=1 c=7 v=103
21410 Par ch=1 c=7 v=100
21412 Par ch=1 c=7 v=99
21420 Par ch=1 c=7 v=97
21422 Par ch=1 c=7 v=96
21430 Par ch=1 c=7 v=94
21432 Par ch=1 c=7 v=93
21440 Par ch=1 c=7 v=91
21444 Par ch=1 c=7 v=90
21450 Par ch=1 c=7 v=88
21452 Par ch=1 c=7 v=87
21460 Par ch=1 c=7 v=85
21464 Par ch=1 c=7 v=84
21470 Par ch=1 c=7 v=82
21472 Par ch=1 c=7 v=81
21480 Par ch=1 c=7 v=79
21484 Par ch=1 c=7 v=78
21490 Par ch=1 c=7 v=76
21494 Par ch=1 c=7 v=75
21500 Par ch=1 c=7 v=73
21504 Par ch=1 c=7 v=72
21510 Par ch=1 c=7 v=69
21514 Par ch=1 c=7 v=68
21520 Par ch=1 c=7 v=66
21524 Par ch=1 c=7 v=65
21530 Par ch=1 c=7 v=62
21534 Par ch=1 c=7 v=61
21536 Par ch=1 c=7 v=60
21540 Par ch=1 c=7 v=59
21548 Par ch=1 c=7 v=56
21550 Par ch=1 c=7 v=55
21554 Par ch=1 c=7 v=54
21556 Par ch=1 c=7 v=52
21560 Par ch=1 c=7 v=51
21568 Par ch=1 c=7 v=48
21572 Par ch=1 c=7 v=47
21574 Par ch=1 c=7 v=46
21578 Par ch=1 c=7 v=44
21580 Par ch=1 c=7 v=43
21584 Par ch=1 c=7 v=42
21588 Par ch=1 c=7 v=40
21592 Par ch=1 c=7 v=39
21594 Par ch=1 c=7 v=38
21598 Par ch=1 c=7 v=36
21600 Par ch=1 c=7 v=35
21604 Par ch=1 c=7 v=33
21608 Par ch=1 c=7 v=32
21612 Par ch=1 c=7 v=30
21614 Par ch=1 c=7 v=29
21618 Par ch=1 c=7 v=27
21622 Par ch=1 c=7 v=25
21624 Par ch=1 c=7 v=24
21628 Par ch=1 c=7 v=22
21632 Par ch=1 c=7 v=20
21636 Par ch=1 c=7 v=18
21640 Par ch=1 c=7 v=17
21644 Par ch=1 c=7 v=16
21652 Off ch=1 n=62 v=0
21652 Par ch=1 c=7 v=18
21652 On ch=1 n=63 v=74
21656 Par ch=1 c=7 v=19
21658 Par ch=1 c=7 v=21
21662 Par ch=1 c=7 v=23
21664 Par ch=1 c=7 v=25
21668 Par ch=1 c=7 v=27
21672 Par ch=1 c=7 v=29
21676 Par ch=1 c=7 v=31
21678 Par ch=1 c=7 v=33
21682 Par ch=1 c=7 v=35
21684 Par ch=1 c=7 v=37
21688 Par ch=1 c=7 v=39
21692 Par ch=1 c=7 v=40
21696 Par ch=1 c=7 v=42
21698 Par ch=1 c=7 v=44
21702 Par ch=1 c=7 v=45
21706 Par ch=1 c=7 v=46
21708 Par ch=1 c=7 v=47
21716 Par ch=1 c=7 v=50
21720 Par ch=1 c=7 v=51
21726 Par ch=1 c=7 v=53
21728 Par ch=1 c=7 v=55
21736 Par ch=1 c=7 v=57
21740 Par ch=1 c=7 v=58
21746 Par ch=1 c=7 v=61
21748 Par ch=1 c=7 v=62
21756 Par ch=1 c=7 v=64
21760 Par ch=1 c=7 v=66
21764 Par ch=1 c=7 v=67
21766 Par ch=1 c=7 v=68
21768 Par ch=1 c=7 v=70
21772 Par ch=1 c=7 v=71
21776 Par ch=1 c=7 v=73
21780 Par ch=1 c=7 v=74
21784 Par ch=1 c=7 v=76
21786 Par ch=1 c=7 v=78
21790 Par ch=1 c=7 v=79
21792 Par ch=1 c=7 v=81
21796 Par ch=1 c=7 v=82
21800 Par ch=1 c=7 v=83
21804 Par ch=1 c=7 v=85
21806 Par ch=1 c=7 v=86
21812 Par ch=1 c=7 v=88
21816 Par ch=1 c=7 v=89
21824 Par ch=1 c=7 v=92
21832 Par ch=1 c=7 v=94
21836 Par ch=1 c=7 v=95
21844 Par ch=1 c=7 v=97
21846 Par ch=1 c=7 v=98
21854 Par ch=1 c=7 v=100
21856 Par ch=1 c=7 v=101
21864 Par ch=1 c=7 v=104
21868 Par ch=1 c=7 v=105
21874 Par ch=1 c=7 v=107
21876 Par ch=1 c=7 v=108
21884 Par ch=1 c=7 v=110
21888 Par ch=1 c=7 v=111
21894 Par ch=1 c=7 v=113
21896 Par ch=1 c=7 v=114
21904 Par ch=1 c=7 v=116
21908 Par ch=1 c=7 v=117
21914 Par ch=1 c=7 v=119
21918 Par ch=1 c=7 v=120
21924 Par ch=1 c=7 v=122
21928 Par ch=1 c=7 v=123
21934 Par ch=1 c=7 v=126
22080 Par ch=1 c=7 v=125
22082 Par ch=1 c=7 v=123
22086 Par ch=1 c=7 v=122
22088 Par ch=1 c=7 v=120
22092 Par ch=1 c=7 v=119
22096 Par ch=1 c=7 v=117
22100 Par ch=1 c=7 v=116
22102 Par ch=1 c=7 v=114
22106 Par ch=1 c=7 v=113
22112 Par ch=1 c=7 v=111
22116 Par ch=1 c=7 v=110
22122 Par ch=1 c=7 v=108
22126 Par ch=1 c=7 v=107
22132 Par ch=1 c=7 v=105
22136 Par ch=1 c=7 v=104
22144 Par ch=1 c=7 v=102
22146 Par ch=1 c=7 v=101
22152 Par ch=1 c=7 v=98
22156 Par ch=1 c=7 v=97
22164 Par ch=1 c=7 v=95
22166 Par ch=1 c=7 v=94
22172 Par ch=1 c=7 v=92
22176 Par ch=1 c=7 v=91
22184 Par ch=1 c=7 v=89
22188 Par ch=1 c=7 v=88
22194 Par ch=1 c=7 v=86
22196 Par ch=1 c=7 v=85
22204 Par ch=1 c=7 v=84
22206 Par ch=1 c=7 v=83
22214 Par ch=1 c=7 v=81
22216 Par ch=1 c=7 v=80
22224 Par ch=1 c=7 v=78
22228 Par ch=1 c=7 v=77
22234 Par ch=1 c=7 v=76
22236 Par ch=1 c=7 v=75
22244 Par ch=1 c=7 v=73
22254 Par ch=1 c=7 v=71
22256 Par ch=1 c=7 v=70
22264 Par ch=1 c=7 v=69
22268 Par ch=1 c=7 v=68
22274 Par ch=1 c=7 v=66
22284 Par ch=1 c=7 v=64
22288 Par ch=1 c=7 v=63
22294 Par ch=1 c=7 v=62
22298 Par ch=1 c=7 v=61
22304 Par ch=1 c=7 v=60
22308 Par ch=1 c=7 v=59
22314 Par ch=1 c=7 v=58
22318 Par ch=1 c=7 v=57
22324 Par ch=1 c=7 v=56
22328 Par ch=1 c=7 v=55
22334 Par ch=1 c=7 v=52
22338 Par ch=1 c=7 v=51
22340 Par ch=1 c=7 v=50
22348 Par ch=1 c=7 v=47
22352 Par ch=1 c=7 v=46
22356 Par ch=1 c=7 v=45
22362 Par ch=1 c=7 v=42
22364 Par ch=1 c=7 v=41
22368 Par ch=1 c=7 v=39
22372 Par ch=1 c=7 v=38
22376 Par ch=1 c=7 v=36
22378 Par ch=1 c=7 v=35
22382 Par ch=1 c=7 v=33
22384 Par ch=1 c=7 v=31
22388 Par ch=1 c=7 v=29
22392 Par ch=1 c=7 v=27
22396 Par ch=1 c=7 v=25
22398 Off ch=1 n=63 v=0
22398 On ch=1 n=62 v=74
22400 Par ch=1 c=7 v=15
22402 Off ch=1 n=62 v=0
22404 Par ch=1 c=7 v=18
22406 Par ch=1 c=7 v=21
22410 Par ch=1 c=7 v=24
22412 Par ch=1 c=7 v=27
22416 Par ch=1 c=7 v=30
22420 Par ch=1 c=7 v=33
22424 Par ch=1 c=7 v=35
22428 Par ch=1 c=7 v=38
22430 Par ch=1 c=7 v=41
22434 Par ch=1 c=7 v=44
22436 Par ch=1 c=7 v=46
22440 Par ch=1 c=7 v=49
22444 Par ch=1 c=7 v=51
22448 Par ch=1 c=7 v=53
22450 Par ch=1 c=7 v=55
22454 Par ch=1 c=7 v=57
22456 Par ch=1 c=7 v=59
22460 Par ch=1 c=7 v=61
22464 Par ch=1 c=7 v=63
22468 Par ch=1 c=7 v=64
22470 Par ch=1 c=7 v=66
22474 Par ch=1 c=7 v=68
22476 Par ch=1 c=7 v=69
22480 Par ch=1 c=7 v=71
22484 Par ch=1 c=7 v=72
22488 Par ch=1 c=7 v=74
22490 Par ch=1 c=7 v=76
22494 Par ch=1 c=7 v=77
22498 Par ch=1 c=7 v=78
22500 Par ch=1 c=7 v=80
22504 Par ch=1 c=7 v=81
22512 Par ch=1 c=7 v=84
22514 Par ch=1 c=7 v=85
22520 Par ch=1 c=7 v=87
22524 Par ch=1 c=7 v=89
22528 Par ch=1 c=7 v=90
22532 Par ch=1 c=7 v=91
22534 Par ch=1 c=7 v=93
22538 Par ch=1 c=7 v=94
22540 Par ch=1 c=7 v=96
22544 Par ch=1 c=7 v=97
22548 Par ch=1 c=7 v=99
22552 Par ch=1 c=7 v=100
22556 Par ch=1 c=7 v=101
22562 Par ch=1 c=7 v=103
22564 Par ch=1 c=7 v=105
22572 Par ch=1 c=7 v=107
22574 Par ch=1 c=7 v=108
22582 Par ch=1 c=7 v=109
22584 Par ch=1 c=7 v=110
22592 Par ch=1 c=7 v=112
22596 Par ch=1 c=7 v=113
22602 Par ch=1 c=7 v=115
22604 Par ch=1 c=7 v=116
22612 Par ch=1 c=7 v=118
22616 Par ch=1 c=7 v=119
22622 Par ch=1 c=7 v=121
22624 Par ch=1 c=7 v=122
22632 Par ch=1 c=7 v=124
22636 Par ch=1 c=7 v=125
22642 Par ch=1 c=7 v=126
28415 Par ch=1 c=127 v=0
28415 Meta TrkEnd
TrkEnd
