0 On ch=1 n=32 v=127
16 Off ch=1 n=32 v=0
40 On ch=1 n=32 v=121
50 Off ch=1 n=32 v=0
80 On ch=1 n=32 v=115
92 Off ch=1 n=32 v=0
120 On ch=1 n=32 v=109
130 Off ch=1 n=32 v=0
160 On ch=1 n=32 v=102
172 Off ch=1 n=32 v=0
200 On ch=1 n=32 v=96
212 Off ch=1 n=32 v=0
240 On ch=1 n=32 v=90
252 Off ch=1 n=32 v=0
280 On ch=1 n=32 v=84
292 Off ch=1 n=32 v=0
320 On ch=1 n=32 v=77
334 Off ch=1 n=32 v=0
360 On ch=1 n=32 v=71
372 Off ch=1 n=32 v=0
400 On ch=1 n=32 v=65
414 Off ch=1 n=32 v=0
440 On ch=1 n=32 v=59
452 Off ch=1 n=32 v=0
480 On ch=1 n=32 v=52
492 Off ch=1 n=32 v=0
520 On ch=1 n=32 v=46
532 Off ch=1 n=32 v=0
560 On ch=1 n=32 v=40
572 Off ch=1 n=32 v=0
600 On ch=1 n=32 v=34
612 Off ch=1 n=32 v=0
640 On ch=1 n=32 v=34
654 Off ch=1 n=32 v=0
680 On ch=1 n=32 v=30
692 Off ch=1 n=32 v=0
720 On ch=1 n=32 v=26
734 Off ch=1 n=32 v=0
760 On ch=1 n=32 v=22
772 Off ch=1 n=32 v=0
800 On ch=1 n=32 v=18
812 Off ch=1 n=32 v=0
840 On ch=1 n=32 v=14
852 Off ch=1 n=32 v=0
880 On ch=1 n=32 v=10
892 Off ch=1 n=32 v=0
920 On ch=1 n=32 v=6
932 Off ch=1 n=32 v=0
